<?xml version="1.0" standalone="no"?>
<!DOCTYPE svg PUBLIC "-//W3C//DTD SVG 1.1//EN" "http://www.w3.org/Graphics/SVG/1.1/DTD/svg11.dtd" >
<svg xmlns="http://www.w3.org/2000/svg" xmlns:xlink="http://www.w3.org/1999/xlink" version="1.1">
<metadata>
Created by FontForge 20170731 at Sat Feb 20 17:31:20 2021
 By Aleksey,,,
copyright missing
</metadata>
<defs>
<font id="NostromoRegular-Medium" horiz-adv-x="1593" >
  <font-face 
    font-family="Nostromo Regular Medium"
    font-weight="500"
    font-stretch="normal"
    units-per-em="2048"
    panose-1="0 0 6 0 0 0 0 0 0 0"
    ascent="1638"
    descent="-410"
    x-height="1434"
    cap-height="1434"
    bbox="-846 -590 2935 1927"
    underline-thickness="102"
    underline-position="-307"
    unicode-range="U+0020-24C5"
  />
<missing-glyph horiz-adv-x="1296" 
d="M651 1184q81 0 149 -8.5t119 -23.5t92.5 -36.5t69 -48t49.5 -56.5t32.5 -62t19 -66t9.5 -68.5t3 -68t0 -64.5q0 -62 -1.5 -95.5t-11.5 -95t-29.5 -97.5t-59.5 -82t-96.5 -71.5t-145 -44t-201.5 -18.5q-114 0 -202.5 18.5t-145.5 44t-97 71.5t-59.5 82t-29.5 97.5
t-11.5 95t-1.5 95.5q0 61 1.5 95t11.5 95t30 97.5t60 83t97 71.5t146 43.5t203 18.5v-2zM469 492v378q-68 0 -116 -47t-48 -114v-54q0 -67 48 -115t116 -48zM561 709q34 0 58 24t24 58v79h-164v-79q0 -34 24 -58t58 -24zM756 666h61v204h-61q-42 0 -72.5 -30t-30.5 -72
q0 -41 31 -71.5t72 -30.5zM827 709q68 0 116 47t48 114h-164v-161zM479 492h56q44 0 76 32t32 76v96h-164v-204zM827 492h62q41 0 71.5 30.5t30.5 71.5q0 42 -30 72t-72 30h-62v-204zM817 492v163h-164q0 -67 48 -115t116 -48z" />
    <glyph glyph-name=".notdef" horiz-adv-x="1296" 
d="M651 1184q81 0 149 -8.5t119 -23.5t92.5 -36.5t69 -48t49.5 -56.5t32.5 -62t19 -66t9.5 -68.5t3 -68t0 -64.5q0 -62 -1.5 -95.5t-11.5 -95t-29.5 -97.5t-59.5 -82t-96.5 -71.5t-145 -44t-201.5 -18.5q-114 0 -202.5 18.5t-145.5 44t-97 71.5t-59.5 82t-29.5 97.5
t-11.5 95t-1.5 95.5q0 61 1.5 95t11.5 95t30 97.5t60 83t97 71.5t146 43.5t203 18.5v-2zM469 492v378q-68 0 -116 -47t-48 -114v-54q0 -67 48 -115t116 -48zM561 709q34 0 58 24t24 58v79h-164v-79q0 -34 24 -58t58 -24zM756 666h61v204h-61q-42 0 -72.5 -30t-30.5 -72
q0 -41 31 -71.5t72 -30.5zM827 709q68 0 116 47t48 114h-164v-161zM479 492h56q44 0 76 32t32 76v96h-164v-204zM827 492h62q41 0 71.5 30.5t30.5 71.5q0 42 -30 72t-72 30h-62v-204zM817 492v163h-164q0 -67 48 -115t116 -48z" />
    <glyph glyph-name=".null" horiz-adv-x="1228" 
 />
    <glyph glyph-name="nonmarkingreturn" horiz-adv-x="682" 
 />
    <glyph glyph-name="space" unicode=" " horiz-adv-x="614" 
 />
    <glyph glyph-name="exclam" unicode="!" horiz-adv-x="561" 
d="M184 1411l23 23h131l22 -23l-14 -1022l-22 -22h-101l-22 22zM197 236l24 22h105l22 -22l4 -213l-22 -23h-115l-22 23z" />
    <glyph glyph-name="quotedbl" unicode="&#x22;" horiz-adv-x="770" 
d="M184 1411l23 23h92l25 -23v-364l-25 -23h-92l-23 23v364zM446 1411l25 23h92l23 -23v-364l-23 -23h-92l-25 23v364z" />
    <glyph glyph-name="numbersign" unicode="#" horiz-adv-x="1994" 
d="M1858 1075l18 -26l-39 -111l-27 -18h-311l-139 -400h301l18 -24l-37 -111l-26 -18h-309l-123 -349l-29 -18h-115l-18 27l119 340h-551l-123 -349l-29 -18h-114l-19 27l119 340h-281l-18 24l39 111l26 18h289l139 400h-280l-19 24l39 113l27 18h289l119 340l26 19h117
l18 -25l-116 -334h553l118 340l27 19h117l18 -25l-117 -334h304zM1196 520l139 400h-553l-139 -400h553z" />
    <glyph glyph-name="dollar" unicode="$" horiz-adv-x="1415" 
d="M469 776h678l205 -205v-366l-205 -205h-359v-162l-20 -20h-119l-20 20v162h-422l-23 23l19 106l30 23h834l121 120v234l-121 121h-678l-205 204v398l205 205h240v161l20 21h119l20 -21v-161h543l23 -23l-19 -104l-30 -25h-836l-121 -119v-266z" />
    <glyph glyph-name="percent" unicode="%" horiz-adv-x="1595" 
d="M287 1434h346l133 -134v-450l-133 -133h-346l-133 133v450zM1169 1026h-53l-10 18l274 379l19 11h51l10 -19l-272 -381zM236 1272v-393l10 -11l375 465l-25 25h-272zM684 879v393l-8 8l-375 -465l23 -22h272zM1370 717l133 -133v-451l-133 -133h-346l-133 133v451
l133 133h346zM973 555v-393l10 -10l375 464l-25 25h-272zM1421 162v393l-8 8l-375 -465l23 -22h272zM416 403h53l8 -18l-266 -375l-18 -10h-54l-10 18l268 377z" />
    <glyph glyph-name="ampersand" unicode="&#x26;" horiz-adv-x="1470" 
d="M123 205v303l149 194v23l-149 195v309l205 205h815l205 -205v-174h-164v100l-129 127h-639l-129 -127v-197l112 -165h1129l24 -23v-106l-24 -23h-180v-436l-205 -205h-815zM287 279l129 -127h639l129 127v362h-785l-112 -166v-196z" />
    <glyph glyph-name="quotesingle" unicode="'" horiz-adv-x="507" 
d="M184 1411l23 23h92l25 -23v-364l-25 -23h-92l-23 23v364z" />
    <glyph glyph-name="parenleft" unicode="(" horiz-adv-x="778" 
d="M645 -256l-12 -31l-109 -41l-30 13q-187 461 -187 985t187 979l30 12l107 -45l14 -29q-174 -422 -174 -917q0 -496 174 -926z" />
    <glyph glyph-name="parenright" unicode=")" horiz-adv-x="778" 
d="M133 -256q174 430 174 926q0 495 -174 917l12 29l109 45l29 -12q188 -457 188 -979q0 -519 -186 -985l-31 -13l-109 41z" />
    <glyph glyph-name="asterisk" unicode="*" horiz-adv-x="1142" 
d="M250 907l8 31l229 127l-229 127l-8 31l45 77l31 5l198 -152l-20 246l22 22h90l23 -22l-21 -246l197 152l31 -5l47 -75l-10 -31l-230 -129l232 -125l6 -31l-43 -75l-33 -5l-194 152l18 -248l-23 -22h-90l-22 24l20 246l-196 -154l-33 4z" />
    <glyph glyph-name="plus" unicode="+" horiz-adv-x="1064" 
d="M920 793l22 -23v-104l-22 -25h-312v-311l-22 -23h-105l-24 23v311h-312l-22 25v104l22 23h312v311l24 22h105l22 -22v-311h312z" />
    <glyph glyph-name="comma" unicode="," horiz-adv-x="620" 
d="M260 229l25 19h129l20 -27l-86 -348l-24 -18h-119l-19 26z" />
    <glyph glyph-name="hyphen" unicode="-" horiz-adv-x="1228" 
d="M987 684l23 -22v-93l-23 -22h-760l-22 22v93l22 22h760z" />
    <glyph glyph-name="period" unicode="." horiz-adv-x="575" 
d="M184 184l23 23h162l22 -23v-161l-22 -23h-162l-23 23v161z" />
    <glyph glyph-name="slash" unicode="/" horiz-adv-x="757" 
d="M614 1620l29 18h115l18 -24l-633 -1800l-26 -19h-117l-18 25z" />
    <glyph glyph-name="zero" unicode="0" 
d="M1143 1434l266 -267v-901l-266 -266h-692l-267 266v901l267 267h692zM348 1108v-782l21 -21l749 930l-47 47h-549zM1245 326v782l-16 16l-752 -927l45 -45h549z" />
    <glyph glyph-name="one" unicode="1" 
d="M184 23v106l23 23h508v1130h-482l-30 25l-19 104l23 23h649l23 -23v-1259h505l25 -23v-106l-25 -23h-1177z" />
    <glyph glyph-name="two" unicode="2" 
d="M1401 23l-31 -23h-979l-205 205v383l205 205h725l129 127v235l-129 127h-883l-30 25l-19 104l23 23h997l205 -205v-383l-205 -205h-727l-127 -127v-235l127 -127h897l25 -23z" />
    <glyph glyph-name="three" unicode="3" 
d="M184 1413l23 23l997 -2l205 -205v-309l-149 -195v-23l149 -194v-303l-205 -205h-997l-23 23l19 106l30 23h883l129 127v196l-121 166h-678l-30 23l-19 106l23 23h704l121 165v197l-129 127h-883l-30 25z" />
    <glyph glyph-name="four" unicode="4" 
d="M184 846v565l23 23h119l22 -23v-491l129 -127h768v618l23 23h116l25 -23v-1388l-25 -23h-116l-23 23v618h-856z" />
    <glyph glyph-name="five" unicode="5" 
d="M207 0l-23 23l19 106l33 23h878l129 127v219l-129 129h-725l-205 204v580l23 23h1177l25 -23l-18 -104l-31 -25h-1012v-377l129 -129h725l205 -205v-366l-205 -205h-995z" />
    <glyph glyph-name="six" unicode="6" 
d="M389 0l-205 205v1024l205 205h995l25 -23l-18 -104l-31 -25h-883l-129 -127v-379h854l205 -205v-366l-205 -205h-813zM348 279l129 -127h637l129 127v219l-129 129h-766v-348z" />
    <glyph glyph-name="seven" unicode="7" 
d="M612 0l-22 33l637 1249h-994l-30 25l-19 104l23 23h1177l25 -23v-94l-8 -29l-633 -1261l-37 -27h-119z" />
    <glyph glyph-name="eight" unicode="8" 
d="M184 205v303l150 192v23l-150 195v311l205 205h815l205 -205v-311l-149 -195v-23l149 -192v-303l-205 -205h-815zM348 952l115 -166h665l117 166v203l-129 127h-639l-129 -127v-203zM348 279l129 -127h641l127 127v200l-117 166h-665l-115 -166v-200z" />
    <glyph glyph-name="nine" unicode="9" 
d="M1204 1434l205 -205v-1024l-205 -205h-997l-23 23l19 106l30 23h883l129 127v378h-854l-205 205v367l205 205h813zM1245 1155l-129 127h-639l-127 -127v-219l127 -129h768v348z" />
    <glyph glyph-name="colon" unicode=":" horiz-adv-x="575" 
d="M184 825l23 23h162l22 -23v-161l-22 -23h-162l-23 23v161zM184 186l23 23h162l22 -23v-161l-22 -23h-162l-23 23v161z" />
    <glyph glyph-name="semicolon" unicode=";" horiz-adv-x="641" 
d="M250 825l22 25h162l23 -25v-159l-23 -25h-162l-22 25v159zM260 229l25 19h129l20 -27l-86 -348l-24 -18h-119l-19 26z" />
    <glyph glyph-name="less" unicode="&#x3c;" horiz-adv-x="946" 
d="M813 352l4 -33l-61 -77l-33 -4l-600 452l600 453l33 -4l61 -76l-4 -33l-489 -340z" />
    <glyph glyph-name="equal" unicode="=" horiz-adv-x="1064" 
d="M920 963l22 -23v-104l-22 -25h-775l-22 25v104l22 23h775zM920 616l22 -22v-105l-22 -22h-775l-22 22v105l22 22h775z" />
    <glyph glyph-name="greater" unicode="&#x3e;" horiz-adv-x="946" 
d="M135 352l488 338l-488 340l-6 33l64 76l30 4l600 -453l-600 -452l-30 4l-64 77z" />
    <glyph glyph-name="question" unicode="?" horiz-adv-x="1589" 
d="M588 336l-23 22v224l205 204h297l127 129v240l-127 127h-881l-30 25l-17 104l23 23h991l205 -205v-387l-205 -205h-297l-127 -129v-150l-22 -22h-119zM547 160l22 22h150l24 -22l5 -137l-23 -23h-160l-22 23z" />
    <glyph glyph-name="at" unicode="@" horiz-adv-x="1734" 
d="M1235 1434l315 -316v-553l-86 -262l-182 -72l-6 -6h-80l-16 15v413h-617v-413l-14 -15h-82l-16 15v827l143 143h555l143 -143v-731l107 43l53 186v506l-264 266h-688l-217 -219v-831l188 -189h956l25 -24v-51l-25 -23h-1005l-238 238v927l269 269h782zM1180 758v264
l-84 84h-449l-84 -84v-264h617z" />
    <glyph glyph-name="A" unicode="A" 
d="M207 0l-23 23v1204l209 207h807l209 -207v-1204l-25 -23h-116l-23 23v602h-897v-602l-22 -23h-119zM348 776h897v385l-123 121h-651l-123 -121v-385z" />
    <glyph glyph-name="B" unicode="B" 
d="M207 0l-23 23v1390l23 23l997 -2l205 -205v-301l-160 -211v-10l160 -209v-293l-205 -205h-997zM348 780h785l112 160v223l-121 119h-776v-502zM348 152h776l121 120v220l-112 157h-785v-497z" />
    <glyph glyph-name="C" unicode="C" horiz-adv-x="1546" 
d="M1204 1434l205 -205v-152l-25 -22h-116l-23 22v76l-129 129h-647l-121 -119v-891l121 -120h645l131 127v77l23 25h116l25 -25v-151l-205 -205h-815l-205 205v1024l205 205h815z" />
    <glyph glyph-name="D" unicode="D" 
d="M207 0l-23 23v1390l23 23l997 -2l205 -205v-1024l-205 -205h-997zM348 152h776l121 120v891l-121 119h-776v-1130z" />
    <glyph glyph-name="E" unicode="E" horiz-adv-x="1536" 
d="M207 0l-23 23v1388l23 23h1122l23 -23l-19 -104l-37 -25h-948v-489h787l22 -25l-16 -104l-31 -23h-762v-489h955l30 -23l19 -106l-23 -23h-1122z" />
    <glyph glyph-name="F" unicode="F" horiz-adv-x="1536" 
d="M184 23v1388l23 23h1122l23 -23l-19 -104l-30 -25h-955v-489h787l22 -23l-16 -106l-31 -23h-762v-618l-22 -23h-119z" />
    <glyph glyph-name="G" unicode="G" 
d="M1268 1055l-23 22v76l-129 129h-647l-121 -119v-891l121 -120h645l131 127v286h-426l-22 25l18 84l31 22h538l25 -22v-469l-205 -205h-815l-205 205v1024l205 205h815l205 -205v-152l-25 -22h-116z" />
    <glyph glyph-name="H" unicode="H" horiz-adv-x="1675" 
d="M1466 1434l25 -23v-1388l-25 -23h-116l-23 23v618h-979v-618l-22 -23h-119l-23 23v1388l23 23h119l22 -23v-618h979v618l23 23h116z" />
    <glyph glyph-name="I" unicode="I" horiz-adv-x="532" 
d="M184 1411l23 23h119l22 -23v-1388l-22 -23h-119l-23 23v1388z" />
    <glyph glyph-name="J" unicode="J" 
d="M1384 1434l25 -23v-1206l-205 -205h-815l-205 205v346l23 22h119l22 -22v-279l121 -120h655l121 120v1139l23 23h116z" />
    <glyph glyph-name="K" unicode="K" 
d="M1245 420l-354 205h-543v-602l-22 -23h-119l-23 23v1388l23 23h119l22 -23v-635h543l354 205v432l23 25h116l25 -25v-500l-373 -208v-13l373 -209v-460l-25 -23h-116l-23 23v397z" />
    <glyph glyph-name="L" unicode="L" horiz-adv-x="1323" 
d="M209 1434h119l22 -23v-1259h828l22 -23l-18 -106l-31 -23h-944l-23 23l2 1388z" />
    <glyph glyph-name="M" unicode="M" horiz-adv-x="1769" 
d="M885 752l536 663l25 19h115l24 -23v-1388l-24 -23h-117l-23 23v1142l-536 -655l-537 655v-1142l-22 -23h-119l-23 23v1388l23 23h117l24 -19z" />
    <glyph glyph-name="N" unicode="N" horiz-adv-x="1675" 
d="M184 23v1388l23 23h112l27 -17l981 -1157v1151l23 23h116l25 -23v-1388l-25 -23h-108l-31 16l-979 1155v-1148l-22 -23h-119z" />
    <glyph glyph-name="O" unicode="O" 
d="M389 -20l-205 204v1065l205 205h815l205 -205v-1065l-205 -204h-815zM348 252l121 -121h655l121 121v932l-121 119h-655l-121 -119v-932z" />
    <glyph glyph-name="P" unicode="P" horiz-adv-x="1546" 
d="M184 23v1390l23 23l997 -2l205 -205v-600l-205 -205h-856v-401l-22 -23h-119zM348 573h768l129 129v453l-129 127h-768v-709z" />
    <glyph glyph-name="Q" unicode="Q" 
d="M1204 1454l205 -205v-1065l-205 -204h-332v-13l58 -47l33 -72l-15 -28h-121l-26 24l-56 136h-356l-205 204v1065l205 205h815zM1245 252v932l-121 119h-655l-121 -119v-932l121 -121h655z" />
    <glyph glyph-name="R" unicode="R" 
d="M207 0l-23 23v1390l23 23l997 -2l205 -205v-320l-190 -204v-15l190 -205v-462l-25 -23h-116l-23 23v442l-151 160h-746v-602l-22 -23h-119zM348 776h754l143 158v229l-121 119h-776v-506z" />
    <glyph glyph-name="S" unicode="S" horiz-adv-x="1538" 
d="M207 0l-23 23l19 106l30 23h834l121 120v234l-121 121h-678l-205 204v398l205 205h942l23 -23l-19 -104l-30 -25h-836l-121 -119v-266l121 -121h678l205 -205v-366l-205 -205h-940z" />
    <glyph glyph-name="T" unicode="T" horiz-adv-x="1449" 
d="M141 1292l-18 119l22 23h1158l24 -23l-18 -119l-31 -22h-471v-1247l-23 -23h-118l-23 23v1247h-471z" />
    <glyph glyph-name="U" unicode="U" 
d="M1384 1434l25 -23v-1206l-205 -205h-815l-205 205v1206l23 23h119l22 -23v-1132l129 -127h639l129 127v1132l23 23h116z" />
    <glyph glyph-name="V" unicode="V" 
d="M795 195l450 677v539l23 23h116l25 -23v-590l-12 -28l-541 -781l-29 -12h-63l-27 12l-540 781l-13 28v590l23 23h119l22 -23v-539z" />
    <glyph glyph-name="W" unicode="W" horiz-adv-x="1769" 
d="M885 682l-537 -664l-26 -18h-115l-23 23v1388l23 23h119l22 -23v-1143l537 656l536 -656v1143l23 23h117l24 -23v-1388l-24 -23h-115l-25 18z" />
    <glyph glyph-name="X" unicode="X" horiz-adv-x="1568" 
d="M784 788l437 295v328l22 23h117l24 -23v-381l-12 -26l-467 -299l467 -271l12 -28v-383l-24 -23h-117l-22 23v329l-437 269l-436 -269v-329l-22 -23h-119l-23 23v383l13 28l458 271l-458 299l-13 26v381l23 23h119l22 -23v-328z" />
    <glyph glyph-name="Y" unicode="Y" horiz-adv-x="1470" 
d="M123 1051v360l22 23h119l23 -23v-324l446 -561l451 561v324l22 23h117l25 -23v-360l-13 -29l-518 -627v-372l-22 -25h-119l-23 25v372l-518 627z" />
    <glyph glyph-name="Z" unicode="Z" horiz-adv-x="1413" 
d="M147 0l-24 23v104l8 31l928 1124h-887l-31 25l-18 104l24 23h1121l22 -23v-90l-6 -29l-940 -1140h897l31 -23l18 -106l-22 -23h-1121z" />
    <glyph glyph-name="bracketleft" unicode="[" horiz-adv-x="851" 
d="M645 1647l23 -23v-106l-23 -23h-45l-129 -127v-1300l129 -129h45l23 -23v-106l-23 -23h-133l-205 205v1450l205 205h133z" />
    <glyph glyph-name="backslash" unicode="\" horiz-adv-x="757" 
d="M143 1620l633 -1800l-18 -25h-115l-29 19l-632 1800l18 24h117z" />
    <glyph glyph-name="bracketright" unicode="]" horiz-adv-x="913" 
d="M268 1647h133l205 -205v-1450l-205 -205h-133l-22 23v106l22 23h47l127 129v1300l-127 127h-47l-22 23v106z" />
    <glyph glyph-name="asciicircum" unicode="^" horiz-adv-x="901" 
d="M229 1178l-14 51l156 194l24 11h113l24 -11l156 -194l-24 -51h-89l-30 16l-92 162l-95 -162l-30 -16h-99z" />
    <glyph glyph-name="underscore" unicode="_" horiz-adv-x="1208" 
d="M1057 -123l22 -22v-93l-22 -24h-912l-22 24v93l22 22h912z" />
    <glyph glyph-name="a" unicode="a" 
d="M207 0l-23 23v1204l209 207h807l209 -207v-1204l-25 -23h-116l-23 23v602h-897v-602l-22 -23h-119zM348 776h897v385l-123 121h-651l-123 -121v-385z" />
    <glyph glyph-name="b" unicode="b" 
d="M207 0l-23 23v1390l23 23l997 -2l205 -205v-301l-160 -211v-10l160 -209v-293l-205 -205h-997zM348 780h785l112 160v223l-121 119h-776v-502zM348 152h776l121 120v220l-112 157h-785v-497z" />
    <glyph glyph-name="c" unicode="c" horiz-adv-x="1546" 
d="M1204 1434l205 -205v-152l-25 -22h-116l-23 22v76l-129 129h-647l-121 -119v-891l121 -120h645l131 127v77l23 25h116l25 -25v-151l-205 -205h-815l-205 205v1024l205 205h815z" />
    <glyph glyph-name="d" unicode="d" 
d="M207 0l-23 23v1390l23 23l997 -2l205 -205v-1024l-205 -205h-997zM348 152h776l121 120v891l-121 119h-776v-1130z" />
    <glyph glyph-name="e" unicode="e" horiz-adv-x="1536" 
d="M207 0l-23 23v1388l23 23h1122l23 -23l-19 -104l-37 -25h-948v-489h787l22 -25l-16 -104l-31 -23h-762v-489h955l30 -23l19 -106l-23 -23h-1122z" />
    <glyph glyph-name="f" unicode="f" horiz-adv-x="1536" 
d="M184 23v1388l23 23h1122l23 -23l-19 -104l-30 -25h-955v-489h787l22 -23l-16 -106l-31 -23h-762v-618l-22 -23h-119z" />
    <glyph glyph-name="g" unicode="g" 
d="M1268 1055l-23 22v76l-129 129h-647l-121 -119v-891l121 -120h645l131 127v286h-426l-22 25l18 84l31 22h538l25 -22v-469l-205 -205h-815l-205 205v1024l205 205h815l205 -205v-152l-25 -22h-116z" />
    <glyph glyph-name="h" unicode="h" horiz-adv-x="1675" 
d="M1466 1434l25 -23v-1388l-25 -23h-116l-23 23v618h-979v-618l-22 -23h-119l-23 23v1388l23 23h119l22 -23v-618h979v618l23 23h116z" />
    <glyph glyph-name="i" unicode="i" horiz-adv-x="532" 
d="M184 1411l23 23h119l22 -23v-1388l-22 -23h-119l-23 23v1388z" />
    <glyph glyph-name="j" unicode="j" 
d="M1384 1434l25 -23v-1206l-205 -205h-815l-205 205v346l23 22h119l22 -22v-279l121 -120h655l121 120v1139l23 23h116z" />
    <glyph glyph-name="k" unicode="k" 
d="M1245 420l-354 205h-543v-602l-22 -23h-119l-23 23v1388l23 23h119l22 -23v-635h543l354 205v432l23 25h116l25 -25v-500l-373 -208v-13l373 -209v-460l-25 -23h-116l-23 23v397z" />
    <glyph glyph-name="l" unicode="l" horiz-adv-x="1323" 
d="M209 1434h119l22 -23v-1259h828l22 -23l-18 -106l-31 -23h-944l-23 23l2 1388z" />
    <glyph glyph-name="m" unicode="m" horiz-adv-x="1769" 
d="M885 752l536 663l25 19h115l24 -23v-1388l-24 -23h-117l-23 23v1142l-536 -655l-537 655v-1142l-22 -23h-119l-23 23v1388l23 23h117l24 -19z" />
    <glyph glyph-name="n" unicode="n" horiz-adv-x="1675" 
d="M184 23v1388l23 23h112l27 -17l981 -1157v1151l23 23h116l25 -23v-1388l-25 -23h-108l-31 16l-979 1155v-1148l-22 -23h-119z" />
    <glyph glyph-name="o" unicode="o" 
d="M389 -20l-205 204v1065l205 205h815l205 -205v-1065l-205 -204h-815zM348 252l121 -121h655l121 121v932l-121 119h-655l-121 -119v-932z" />
    <glyph glyph-name="p" unicode="p" horiz-adv-x="1546" 
d="M184 23v1390l23 23l997 -2l205 -205v-600l-205 -205h-856v-401l-22 -23h-119zM348 573h768l129 129v453l-129 127h-768v-709z" />
    <glyph glyph-name="q" unicode="q" 
d="M1204 1454l205 -205v-1065l-205 -204h-332v-13l58 -47l33 -72l-15 -28h-121l-26 24l-56 136h-356l-205 204v1065l205 205h815zM1245 252v932l-121 119h-655l-121 -119v-932l121 -121h655z" />
    <glyph glyph-name="r" unicode="r" 
d="M207 0l-23 23v1390l23 23l997 -2l205 -205v-320l-190 -204v-15l190 -205v-462l-25 -23h-116l-23 23v442l-151 160h-746v-602l-22 -23h-119zM348 776h754l143 158v229l-121 119h-776v-506z" />
    <glyph glyph-name="s" unicode="s" horiz-adv-x="1538" 
d="M207 0l-23 23l19 106l30 23h834l121 120v234l-121 121h-678l-205 204v398l205 205h942l23 -23l-19 -104l-30 -25h-836l-121 -119v-266l121 -121h678l205 -205v-366l-205 -205h-940z" />
    <glyph glyph-name="t" unicode="t" horiz-adv-x="1449" 
d="M141 1292l-18 119l22 23h1158l24 -23l-18 -119l-31 -22h-471v-1247l-23 -23h-118l-23 23v1247h-471z" />
    <glyph glyph-name="u" unicode="u" 
d="M1384 1434l25 -23v-1206l-205 -205h-815l-205 205v1206l23 23h119l22 -23v-1132l129 -127h639l129 127v1132l23 23h116z" />
    <glyph glyph-name="v" unicode="v" 
d="M795 195l450 677v539l23 23h116l25 -23v-590l-12 -28l-541 -781l-29 -12h-63l-27 12l-540 781l-13 28v590l23 23h119l22 -23v-539z" />
    <glyph glyph-name="w" unicode="w" horiz-adv-x="1769" 
d="M885 682l-537 -664l-26 -18h-115l-23 23v1388l23 23h119l22 -23v-1143l537 656l536 -656v1143l23 23h117l24 -23v-1388l-24 -23h-115l-25 18z" />
    <glyph glyph-name="x" unicode="x" horiz-adv-x="1568" 
d="M784 788l437 295v328l22 23h117l24 -23v-381l-12 -26l-467 -299l467 -271l12 -28v-383l-24 -23h-117l-22 23v329l-437 269l-436 -269v-329l-22 -23h-119l-23 23v383l13 28l458 271l-458 299l-13 26v381l23 23h119l22 -23v-328z" />
    <glyph glyph-name="y" unicode="y" horiz-adv-x="1470" 
d="M123 1051v360l22 23h119l23 -23v-324l446 -561l451 561v324l22 23h117l25 -23v-360l-13 -29l-518 -627v-372l-22 -25h-119l-23 25v372l-518 627z" />
    <glyph glyph-name="z" unicode="z" horiz-adv-x="1413" 
d="M147 0l-24 23v104l8 31l928 1124h-887l-31 25l-18 104l24 23h1121l22 -23v-90l-6 -29l-940 -1140h897l31 -23l18 -106l-22 -23h-1121z" />
    <glyph glyph-name="braceleft" unicode="{" horiz-adv-x="1222" 
d="M307 623v176l105 30l8 807h588v-143h-424v-705l-148 -55v-53l148 -57v-719h424v-150h-596v821z" />
    <glyph glyph-name="bar" unicode="|" horiz-adv-x="573" 
d="M205 1616l22 22h119l23 -22v-1901l-23 -22h-119l-22 22v1901z" />
    <glyph glyph-name="braceright" unicode="}" horiz-adv-x="1222" 
d="M915 623l-104 -48v-821h-596v150h424v719l149 57v53l-149 55v705h-424v143h588l8 -807l104 -30v-176z" />
    <glyph glyph-name="asciitilde" unicode="~" horiz-adv-x="886" 
d="M145 657l-22 25l63 170l131 51l119 -49l82 -66l51 -16l47 23l35 86l21 22h69l23 -22l-78 -183l-117 -41l-94 25l-80 72l-78 37l-47 -21l-34 -90l-21 -23h-70z" />
    <glyph glyph-name="exclamdown" unicode="&#xa1;" horiz-adv-x="544" 
d="M348 1200l-22 -24h-105l-24 24l-4 211l22 25h115l22 -25zM360 25l-22 -23h-131l-23 23l17 1022l22 22h101l22 -22z" />
    <glyph glyph-name="cent" unicode="&#xa2;" horiz-adv-x="1163" 
d="M981 969l-16 18v57l-97 97h-485l-90 -90v-668l90 -90h483l99 94v59l16 17h88l18 -17v-114l-153 -154h-295v-155l-23 -23h-67l-23 23v155h-202l-154 154v768l154 153h202v158l23 23h67l23 -23v-158h295l153 -153v-113l-18 -18h-88z" />
    <glyph glyph-name="sterling" unicode="&#xa3;" horiz-adv-x="1648" 
d="M1384 1055l-22 22v78l-127 127h-600l-127 -127v-498h629l30 -30l-10 -52l-31 -30h-618v-393h969l30 -23l19 -106l-23 -23h-1358l-22 23v106l22 23h199v393h-190l-31 30v52l31 30h190v572l205 205h772l205 -205v-152l-23 -22h-119z" />
    <glyph glyph-name="yen" unicode="&#xa5;" horiz-adv-x="1347" 
d="M1262 1434l24 -23v-197l-12 -28l-453 -547h152l31 -31v-51l-31 -31h-217v-178h217l31 -31v-51l-31 -30h-217v-213l-23 -25h-119l-22 25v213h-217l-31 30v51l31 31h217v178h-217l-31 31v51l31 31h151l-452 547l-13 28v197l23 23h119l22 -23v-160l447 -561l450 561v160
l23 23h117z" />
    <glyph glyph-name="brokenbar" unicode="&#xa6;" horiz-adv-x="573" 
d="M227 870l-22 23v723l22 22h119l23 -22v-723l-23 -23h-119zM346 461l23 -23v-723l-23 -22h-119l-22 22v723l22 23h119z" />
    <glyph glyph-name="section" unicode="&#xa7;" horiz-adv-x="1257" 
d="M184 563v731l140 140h733l16 -17l-18 -71l-23 -17h-663l-72 -72v-333l635 63l139 -137v-711l-139 -139h-731l-17 16l19 72l24 16h637l92 93v292l-632 -63zM301 616l84 -86l563 56v213l-88 84l-563 -58z" />
    <glyph glyph-name="copyright" unicode="&#xa9;" horiz-adv-x="1619" 
d="M123 319v795l319 320h740l315 -320v-795l-315 -319h-740zM221 365l266 -267h646l266 267v706l-266 266h-646l-266 -266v-706zM1090 1210l141 -141v-104l-17 -17h-79l-17 17v53l-88 88h-444l-84 -82v-612l84 -84h444l88 88v55l17 14h79l17 -14v-104l-141 -142h-560
l-141 142v702l141 141h560z" />
    <glyph glyph-name="guillemotleft" unicode="&#xab;" horiz-adv-x="1525" 
d="M813 352l4 -33l-61 -77l-33 -4l-600 452l600 453l33 -4l61 -76l-4 -33l-489 -340zM1393 352l4 -33l-62 -77l-32 -4l-601 452l601 453l32 -4l62 -76l-4 -33l-490 -340z" />
    <glyph glyph-name="registered" unicode="&#xae;" horiz-adv-x="1036" 
d="M123 784v488l162 162h454l164 -162v-488l-164 -161h-454zM174 801l129 -127h420l127 127v452l-127 129h-420l-129 -129v-452zM303 772l-8 8v498l8 6h352l74 -74v-112l-67 -74v-4l67 -74v-166l-8 -8h-37l-8 8v158l-55 61h-275v-219l-6 -8h-37zM346 1047l277 2l53 61v78
l-47 47h-283v-188z" />
    <glyph glyph-name="degree" unicode="&#xb0;" horiz-adv-x="784" 
d="M123 1186l43 147l115 84l110 17l105 -15l122 -86l44 -147l-29 -117l-105 -104l-137 -27l-149 33l-90 86zM266 1186l13 -60l38 -49l74 -20l70 14l47 57l8 58l-14 71l-49 46l-62 10l-63 -13l-45 -43z" />
    <glyph glyph-name="plusminus" unicode="&#xb1;" horiz-adv-x="1187" 
d="M920 889l22 -23v-104l-22 -25h-312v-311l-22 -23h-105l-24 23v311h-312l-22 25v104l22 23h312v311l24 23h105l22 -23v-311h312zM145 213h775l22 -23v-104l-22 -25h-775l-22 25v104z" />
    <glyph glyph-name="uni00B2" unicode="&#xb2;" horiz-adv-x="980" 
d="M793 729l-17 -12h-489l-103 102v191l103 102h364l64 66v116l-64 64h-442l-16 12l-9 51l13 13h497l103 -103v-190l-103 -103h-362l-66 -65v-117l66 -63h448l11 -13z" />
    <glyph glyph-name="uni00B3" unicode="&#xb3;" horiz-adv-x="980" 
d="M184 1423l13 11h497l103 -103v-155l-74 -97v-10l74 -98v-152l-103 -102h-497l-13 12l9 51l16 13h442l64 63v98l-62 84h-338l-16 11l-8 53l12 10h350l62 84v98l-64 64h-442l-16 12z" />
    <glyph glyph-name="periodcentered" unicode="&#xb7;" horiz-adv-x="575" 
d="M184 801l23 24h162l22 -24v-160l-22 -25h-162l-23 25v160z" />
    <glyph glyph-name="uni00B9" unicode="&#xb9;" horiz-adv-x="980" 
d="M184 729v51l13 13h252v565h-240l-16 12l-9 51l13 13h323l10 -13v-628h254l13 -13v-51l-13 -12h-587z" />
    <glyph glyph-name="guillemotright" unicode="&#xbb;" horiz-adv-x="1525" 
d="M135 352l488 338l-488 340l-6 33l64 76l30 4l600 -453l-600 -452l-30 4l-64 77zM715 352l487 338l-487 340l-6 33l63 76l31 4l600 -453l-600 -452l-31 4l-63 77z" />
    <glyph glyph-name="onequarter" unicode="&#xbc;" horiz-adv-x="1882" 
d="M154 729v51l12 13h252v565h-240l-16 12l-8 51l12 13h323l11 -13v-628h254l12 -13v-51l-12 -12h-588zM1190 1026h53q14 0 19 8l270 381q11 19 -8 19h-54q-12 0 -18 -11l-272 -379q-5 -8 -2 -13t12 -5zM1178 424v281l12 12h57l13 -12v-244l63 -66h385v310l10 12h60l12 -12
v-693l-12 -12h-60l-10 12v310h-428zM664 403q-16 0 -19 -8l-268 -377q-11 -18 8 -18h55q12 0 19 10l266 375q5 7 2 12.5t-12 5.5h-51z" />
    <glyph glyph-name="onehalf" unicode="&#xbd;" horiz-adv-x="1841" 
d="M154 729v51l12 13h252v565h-240l-16 12l-8 51l12 13h323l11 -13v-628h254l12 -13v-51l-12 -12h-588zM1151 1026h53q14 0 19 8l272 381q5 7 2 13t-12 6h-53q-14 0 -19 -11l-272 -379q-5 -8 -2 -13t12 -5zM1745 12l-16 -12h-490l-102 102v191l102 102h365l63 66v117l-63 63
h-443l-16 12l-8 52l12 12h498l102 -103v-190l-102 -102h-363l-65 -66v-117l65 -63h449l10 -13zM645 403q-13 0 -18 -8l-269 -377q-4 -8 -1 -13t12 -5h53q15 0 18 10l269 375q4 7 1 12.5t-12 5.5h-53z" />
    <glyph glyph-name="threequarters" unicode="&#xbe;" horiz-adv-x="2002" 
d="M154 1423l12 11h498l102 -103v-155l-74 -97v-10l74 -98v-152l-102 -102h-498l-12 12l8 51l16 13h443l63 63v98l-61 84h-338l-17 11l-8 53l12 10h351l61 84v98l-63 64h-443l-16 12zM1307 1026h53q15 0 18 8l273 381q5 7 1.5 13t-12.5 6h-51q-15 0 -18 -11l-275 -379
q-4 -8 -1 -13t12 -5zM1298 424v281l13 12h59l10 -12v-244l66 -66h383v310l12 12h57l13 -12v-693l-13 -12h-57l-12 12v310h-428zM655 403q-13 0 -18 -8l-268 -377q-5 -8 -2 -13t12 -5h53q12 0 19 10l266 375q11 18 -8 18h-54z" />
    <glyph glyph-name="questiondown" unicode="&#xbf;" horiz-adv-x="1466" 
d="M920 969l-23 -25h-149l-25 25l-4 135l22 22h160l23 -22zM879 791l22 -23v-223l-205 -205h-297l-127 -129v-240l127 -127h881l31 -24l16 -105l-22 -22h-992l-204 205v387l204 204h297l127 129v150l23 23h119z" />
    <glyph glyph-name="Agrave" unicode="&#xc0;" 
d="M573 1759l19 35h104l39 -27l119 -200l-18 -29h-62l-43 25zM207 0l-23 23v1204l209 207h807l209 -207v-1204l-25 -23h-116l-23 23v602h-897v-602l-22 -23h-119zM348 776h897v385l-123 121h-651l-123 -121v-385z" />
    <glyph glyph-name="Aacute" unicode="&#xc1;" 
d="M1040 1757l-159 -196l-41 -25h-62l-18 29l119 200l39 27h104zM207 0l-23 23v1204l209 207h807l209 -207v-1204l-25 -23h-116l-23 23v602h-897v-602l-22 -23h-119zM348 776h897v385l-123 121h-651l-123 -121v-385z" />
    <glyph glyph-name="Acircumflex" unicode="&#xc2;" 
d="M590 1536l-15 51l156 195l25 10h112l25 -10l156 -195l-25 -51h-88l-31 16l-92 162l-94 -162l-31 -16h-98zM207 0l-23 23v1204l209 207h807l209 -207v-1204l-25 -23h-116l-23 23v602h-897v-602l-22 -23h-119zM348 776h897v385l-123 121h-651l-123 -121v-385z" />
    <glyph glyph-name="Atilde" unicode="&#xc3;" 
d="M514 1542l-22 25l63 170l131 51l119 -49l82 -66l51 -16l47 22l35 86l20 23h70l23 -23l-78 -182l-117 -41l-94 25l-80 71l-78 37l-47 -20l-35 -90l-20 -23h-70zM207 0l-23 23v1204l209 207h807l209 -207v-1204l-25 -23h-116l-23 23v602h-897v-602l-22 -23h-119zM348 776
h897v385l-123 121h-651l-123 -121v-385z" />
    <glyph glyph-name="Adieresis" unicode="&#xc4;" 
d="M567 1708l21 21h153l23 -21v-154l-23 -22h-153l-21 22v154zM874 1708l21 21h154l22 -21v-154l-22 -22h-154l-21 22v154zM207 0l-23 23v1204l209 207h807l209 -207v-1204l-25 -23h-116l-23 23v602h-897v-602l-22 -23h-119zM348 776h897v385l-123 121h-651l-123 -121v-385z
" />
    <glyph glyph-name="Aring" unicode="&#xc5;" 
d="M1200 1434l209 -207v-1204l-25 -23h-116l-23 23v602h-897v-602l-22 -23h-119l-23 23v1204l209 207h178l-28 129l43 147l114 84l111 16l104 -14l123 -86l43 -147l-28 -117l-13 -12h160zM737 1454l74 -20l70 14l47 57l8 58l-14 71l-50 45l-61 11l-63 -13l-46 -43l-16 -71
l12 -60zM1245 776v385l-123 121h-651l-123 -121v-385h897z" />
    <glyph glyph-name="AE" unicode="&#xc6;" horiz-adv-x="2641" 
d="M2363 152l31 -23l19 -106l-25 -23h-1120l-23 23v602h-897v-602l-22 -23h-119l-23 23v1204l209 207h1995l25 -23l-19 -104l-39 -25h-946v-489h786l23 -25l-18 -104l-31 -23h-760v-489h954zM1245 776v506h-768l-129 -129v-377h897z" />
    <glyph glyph-name="Ccedilla" unicode="&#xc7;" horiz-adv-x="1546" 
d="M1268 1055l-23 22v76l-129 129h-647l-121 -119v-891l121 -120h645l131 127v77l23 25h116l25 -25v-151l-205 -205h-381v-29l11 -49l34 -39l56 -12h82l73 -10l80 -58l31 -116v-93l-12 -79l-68 -80l-104 -25h-322l-20 21v69l20 21h283l59 14l33 41l8 45v45l-14 62l-39 30
l-47 9h-82l-86 14l-82 76l-17 94v49h-311l-205 205v1024l205 205h815l205 -205v-152l-25 -22h-116z" />
    <glyph glyph-name="Egrave" unicode="&#xc8;" horiz-adv-x="1536" 
d="M530 1759l19 35h104l39 -27l119 -200l-18 -29h-62l-43 25zM207 0l-23 23v1388l23 23h1122l23 -23l-19 -104l-37 -25h-948v-489h787l22 -25l-16 -104l-31 -23h-762v-489h955l30 -23l19 -106l-23 -23h-1122z" />
    <glyph glyph-name="Eacute" unicode="&#xc9;" horiz-adv-x="1536" 
d="M995 1757l-159 -196l-41 -25h-62l-18 29l119 200l38 27h105zM207 0l-23 23v1388l23 23h1122l23 -23l-19 -104l-37 -25h-948v-489h787l22 -25l-16 -104l-31 -23h-762v-489h955l30 -23l19 -106l-23 -23h-1122z" />
    <glyph glyph-name="Ecircumflex" unicode="&#xca;" horiz-adv-x="1536" 
d="M547 1536l-15 51l156 195l25 10h112l25 -10l156 -195l-25 -51h-88l-31 16l-92 162l-94 -162l-31 -16h-98zM207 0l-23 23v1388l23 23h1122l23 -23l-19 -104l-37 -25h-948v-489h787l22 -25l-16 -104l-31 -23h-762v-489h955l30 -23l19 -106l-23 -23h-1122z" />
    <glyph glyph-name="Edieresis" unicode="&#xcb;" horiz-adv-x="1536" 
d="M524 1708l21 21h153l23 -21v-154l-23 -22h-153l-21 22v154zM831 1708l21 21h154l22 -21v-154l-22 -22h-154l-21 22v154zM207 0l-23 23v1388l23 23h1122l23 -23l-19 -104l-37 -25h-948v-489h787l22 -25l-16 -104l-31 -23h-762v-489h955l30 -23l19 -106l-23 -23h-1122z" />
    <glyph glyph-name="Igrave" unicode="&#xcc;" horiz-adv-x="532" 
d="M27 1759l18 35h105l38 -27l119 -200l-18 -29h-62l-43 25zM184 1411l23 23h119l22 -23v-1388l-22 -23h-119l-23 23v1388z" />
    <glyph glyph-name="Iacute" unicode="&#xcd;" horiz-adv-x="532" 
d="M494 1757l-160 -196l-41 -25h-62l-18 29l119 200l39 27h104zM184 1411l23 23h119l22 -23v-1388l-22 -23h-119l-23 23v1388z" />
    <glyph glyph-name="Icircumflex" unicode="&#xce;" horiz-adv-x="532" 
d="M43 1536l-14 51l155 195l25 10h113l24 -10l156 -195l-25 -51h-88l-31 16l-92 162l-94 -162l-31 -16h-98zM184 1411l23 23h119l22 -23v-1388l-22 -23h-119l-23 23v1388z" />
    <glyph glyph-name="Idieresis" unicode="&#xcf;" horiz-adv-x="532" 
d="M20 1708l21 21h154l22 -21v-154l-22 -22h-154l-21 22v154zM328 1708l20 21h154l22 -21v-154l-22 -22h-154l-20 22v154zM184 1411l23 23h119l22 -23v-1388l-22 -23h-119l-23 23v1388z" />
    <glyph glyph-name="Eth" unicode="&#xd0;" horiz-adv-x="1562" 
d="M1204 1434l205 -205v-1024l-205 -205h-997l-23 23v624h-94l-14 25v92l14 22h94v627l23 23zM1245 272v891l-121 119h-776v-496h96l15 -22v-92l-15 -25h-96v-495h776z" />
    <glyph glyph-name="Ntilde" unicode="&#xd1;" horiz-adv-x="1675" 
d="M539 1542l-23 25l64 170l131 51l118 -49l82 -66l52 -16l47 22l34 86l21 23h70l22 -23l-78 -182l-116 -41l-95 25l-80 71l-77 37l-47 -20l-35 -90l-21 -23h-69zM184 23v1388l23 23h112l27 -17l981 -1157v1151l23 23h116l25 -23v-1388l-25 -23h-108l-31 16l-979 1155v-1148
l-22 -23h-119z" />
    <glyph glyph-name="Ograve" unicode="&#xd2;" 
d="M557 1759l18 35h105l39 -27l119 -200l-19 -29h-61l-43 25zM389 -20l-205 204v1065l205 205h815l205 -205v-1065l-205 -204h-815zM348 252l121 -121h655l121 121v932l-121 119h-655l-121 -119v-932z" />
    <glyph glyph-name="Oacute" unicode="&#xd3;" 
d="M1024 1757l-160 -196l-41 -25h-61l-19 29l119 200l39 27h105zM389 -20l-205 204v1065l205 205h815l205 -205v-1065l-205 -204h-815zM348 252l121 -121h655l121 121v932l-121 119h-655l-121 -119v-932z" />
    <glyph glyph-name="Ocircumflex" unicode="&#xd4;" 
d="M573 1536l-14 51l156 195l24 10h113l25 -10l155 -195l-24 -51h-88l-31 16l-92 162l-95 -162l-30 -16h-99zM389 -20l-205 204v1065l205 205h815l205 -205v-1065l-205 -204h-815zM348 252l121 -121h655l121 121v932l-121 119h-655l-121 -119v-932z" />
    <glyph glyph-name="Otilde" unicode="&#xd5;" 
d="M498 1542l-23 25l64 170l131 51l118 -49l82 -66l52 -16l47 22l35 86l20 23h70l22 -23l-78 -182l-116 -41l-95 25l-79 71l-78 37l-47 -20l-35 -90l-21 -23h-69zM389 -20l-205 204v1065l205 205h815l205 -205v-1065l-205 -204h-815zM348 252l121 -121h655l121 121v932
l-121 119h-655l-121 -119v-932z" />
    <glyph glyph-name="Odieresis" unicode="&#xd6;" 
d="M551 1708l20 21h154l23 -21v-154l-23 -22h-154l-20 22v154zM858 1708l21 21h153l23 -21v-154l-23 -22h-153l-21 22v154zM389 -20l-205 204v1065l205 205h815l205 -205v-1065l-205 -204h-815zM348 252l121 -121h655l121 121v932l-121 119h-655l-121 -119v-932z" />
    <glyph glyph-name="multiply" unicode="&#xd7;" horiz-adv-x="915" 
d="M784 969v-33l-219 -219l219 -219v-33l-75 -74h-31l-219 219l-221 -219h-33l-74 74v33l219 219l-219 219v33l74 73h33l221 -219l219 219h31z" />
    <glyph glyph-name="Oslash" unicode="&#xd8;" 
d="M1204 1454l205 -205v-1065l-205 -204h-592l-10 -29l-24 -17h-107l-16 23l8 23h-74l-205 204v1065l205 205h592l14 41l25 16h106l17 -22l-13 -35h74zM469 131h47l412 1172h-459l-121 -119v-932zM1245 252v932l-121 119h-47l-411 -1172h458z" />
    <glyph glyph-name="Ugrave" unicode="&#xd9;" 
d="M557 1769l18 35h105l39 -26l119 -201l-19 -29h-61l-43 25zM1384 1434l25 -23v-1206l-205 -205h-815l-205 205v1206l23 23h119l22 -23v-1132l129 -127h639l129 127v1132l23 23h116z" />
    <glyph glyph-name="Uacute" unicode="&#xda;" 
d="M1024 1767l-160 -196l-41 -25h-61l-19 29l119 201l39 26h105zM1384 1434l25 -23v-1206l-205 -205h-815l-205 205v1206l23 23h119l22 -23v-1132l129 -127h639l129 127v1132l23 23h116z" />
    <glyph glyph-name="Ucircumflex" unicode="&#xdb;" 
d="M573 1546l-14 51l156 195l24 10h113l25 -10l155 -195l-24 -51h-88l-31 17l-92 161l-95 -161l-30 -17h-99zM1384 1434l25 -23v-1206l-205 -205h-815l-205 205v1206l23 23h119l22 -23v-1132l129 -127h639l129 127v1132l23 23h116z" />
    <glyph glyph-name="Udieresis" unicode="&#xdc;" 
d="M551 1718l20 21h154l23 -21v-153l-23 -23h-154l-20 23v153zM858 1718l21 21h153l23 -21v-153l-23 -23h-153l-21 23v153zM1384 1434l25 -23v-1206l-205 -205h-815l-205 205v1206l23 23h119l22 -23v-1132l129 -127h639l129 127v1132l23 23h116z" />
    <glyph glyph-name="Yacute" unicode="&#xdd;" horiz-adv-x="1470" 
d="M963 1757l-160 -196l-41 -25h-62l-18 29l119 200l39 27h104zM123 1051v360l22 23h119l23 -23v-324l446 -561l451 561v324l22 23h117l25 -23v-360l-13 -29l-518 -627v-372l-22 -25h-119l-23 25v372l-518 627z" />
    <glyph glyph-name="Thorn" unicode="&#xde;" horiz-adv-x="1409" 
d="M123 23v1388l22 23h119l23 -23v-244h856l205 -204v-490l-205 -205l-856 -2v-243l-23 -23h-119zM287 418h768l129 129v340l-129 129h-768v-598z" />
    <glyph glyph-name="germandbls" unicode="&#xdf;" horiz-adv-x="1470" 
d="M440 762l37 29h590l117 165v199l-129 127h-639l-129 -127v-1132l-23 -23h-119l-22 23v1206l205 205h815l205 -205v-301l-160 -211v-10l160 -209v-293l-205 -205h-692l-29 29l18 94l37 29h578l129 127v194l-117 166h-616l-27 29z" />
    <glyph glyph-name="agrave" unicode="&#xe0;" 
d="M573 1759l19 35h104l39 -27l119 -200l-18 -29h-62l-43 25zM207 0l-23 23v1204l209 207h807l209 -207v-1204l-25 -23h-116l-23 23v602h-897v-602l-22 -23h-119zM348 776h897v385l-123 121h-651l-123 -121v-385z" />
    <glyph glyph-name="aacute" unicode="&#xe1;" 
d="M1040 1757l-159 -196l-41 -25h-62l-18 29l119 200l39 27h104zM207 0l-23 23v1204l209 207h807l209 -207v-1204l-25 -23h-116l-23 23v602h-897v-602l-22 -23h-119zM348 776h897v385l-123 121h-651l-123 -121v-385z" />
    <glyph glyph-name="acircumflex" unicode="&#xe2;" 
d="M590 1536l-15 51l156 195l25 10h112l25 -10l156 -195l-25 -51h-88l-31 16l-92 162l-94 -162l-31 -16h-98zM207 0l-23 23v1204l209 207h807l209 -207v-1204l-25 -23h-116l-23 23v602h-897v-602l-22 -23h-119zM348 776h897v385l-123 121h-651l-123 -121v-385z" />
    <glyph glyph-name="atilde" unicode="&#xe3;" 
d="M514 1542l-22 25l63 170l131 51l119 -49l82 -66l51 -16l47 22l35 86l20 23h70l23 -23l-78 -182l-117 -41l-94 25l-80 71l-78 37l-47 -20l-35 -90l-20 -23h-70zM207 0l-23 23v1204l209 207h807l209 -207v-1204l-25 -23h-116l-23 23v602h-897v-602l-22 -23h-119zM348 776
h897v385l-123 121h-651l-123 -121v-385z" />
    <glyph glyph-name="adieresis" unicode="&#xe4;" 
d="M567 1708l21 21h153l23 -21v-154l-23 -22h-153l-21 22v154zM874 1708l21 21h154l22 -21v-154l-22 -22h-154l-21 22v154zM207 0l-23 23v1204l209 207h807l209 -207v-1204l-25 -23h-116l-23 23v602h-897v-602l-22 -23h-119zM348 776h897v385l-123 121h-651l-123 -121v-385z
" />
    <glyph glyph-name="aring" unicode="&#xe5;" 
d="M1200 1434l209 -207v-1204l-25 -23h-116l-23 23v602h-897v-602l-22 -23h-119l-23 23v1204l209 207h178l-28 129l43 147l114 84l111 16l104 -14l123 -86l43 -147l-28 -117l-13 -12h160zM737 1454l74 -20l70 14l47 57l8 58l-14 71l-50 45l-61 11l-63 -13l-46 -43l-16 -71
l12 -60zM1245 776v385l-123 121h-651l-123 -121v-385h897z" />
    <glyph glyph-name="ae" unicode="&#xe6;" horiz-adv-x="2641" 
d="M2363 152l31 -23l19 -106l-25 -23h-1120l-23 23v602h-897v-602l-22 -23h-119l-23 23v1204l209 207h1995l25 -23l-19 -104l-39 -25h-946v-489h786l23 -25l-18 -104l-31 -23h-760v-489h954zM1245 776v506h-768l-129 -129v-377h897z" />
    <glyph glyph-name="ccedilla" unicode="&#xe7;" horiz-adv-x="1546" 
d="M1268 1055l-23 22v76l-129 129h-647l-121 -119v-891l121 -120h645l131 127v77l23 25h116l25 -25v-151l-205 -205h-381v-29l11 -49l34 -39l56 -12h82l73 -10l80 -58l31 -116v-93l-12 -79l-68 -80l-104 -25h-322l-20 21v69l20 21h283l59 14l33 41l8 45v45l-14 62l-39 30
l-47 9h-82l-86 14l-82 76l-17 94v49h-311l-205 205v1024l205 205h815l205 -205v-152l-25 -22h-116z" />
    <glyph glyph-name="egrave" unicode="&#xe8;" horiz-adv-x="1536" 
d="M530 1759l19 35h104l39 -27l119 -200l-18 -29h-62l-43 25zM207 0l-23 23v1388l23 23h1122l23 -23l-19 -104l-37 -25h-948v-489h787l22 -25l-16 -104l-31 -23h-762v-489h955l30 -23l19 -106l-23 -23h-1122z" />
    <glyph glyph-name="eacute" unicode="&#xe9;" horiz-adv-x="1536" 
d="M995 1757l-159 -196l-41 -25h-62l-18 29l119 200l38 27h105zM207 0l-23 23v1388l23 23h1122l23 -23l-19 -104l-37 -25h-948v-489h787l22 -25l-16 -104l-31 -23h-762v-489h955l30 -23l19 -106l-23 -23h-1122z" />
    <glyph glyph-name="ecircumflex" unicode="&#xea;" horiz-adv-x="1536" 
d="M547 1536l-15 51l156 195l25 10h112l25 -10l156 -195l-25 -51h-88l-31 16l-92 162l-94 -162l-31 -16h-98zM207 0l-23 23v1388l23 23h1122l23 -23l-19 -104l-37 -25h-948v-489h787l22 -25l-16 -104l-31 -23h-762v-489h955l30 -23l19 -106l-23 -23h-1122z" />
    <glyph glyph-name="edieresis" unicode="&#xeb;" horiz-adv-x="1536" 
d="M524 1708l21 21h153l23 -21v-154l-23 -22h-153l-21 22v154zM831 1708l21 21h154l22 -21v-154l-22 -22h-154l-21 22v154zM207 0l-23 23v1388l23 23h1122l23 -23l-19 -104l-37 -25h-948v-489h787l22 -25l-16 -104l-31 -23h-762v-489h955l30 -23l19 -106l-23 -23h-1122z" />
    <glyph glyph-name="igrave" unicode="&#xec;" horiz-adv-x="532" 
d="M27 1759l18 35h105l38 -27l119 -200l-18 -29h-62l-43 25zM184 1411l23 23h119l22 -23v-1388l-22 -23h-119l-23 23v1388z" />
    <glyph glyph-name="iacute" unicode="&#xed;" horiz-adv-x="532" 
d="M494 1757l-160 -196l-41 -25h-62l-18 29l119 200l39 27h104zM184 1411l23 23h119l22 -23v-1388l-22 -23h-119l-23 23v1388z" />
    <glyph glyph-name="icircumflex" unicode="&#xee;" horiz-adv-x="532" 
d="M43 1536l-14 51l155 195l25 10h113l24 -10l156 -195l-25 -51h-88l-31 16l-92 162l-94 -162l-31 -16h-98zM184 1411l23 23h119l22 -23v-1388l-22 -23h-119l-23 23v1388z" />
    <glyph glyph-name="idieresis" unicode="&#xef;" horiz-adv-x="532" 
d="M20 1708l21 21h154l22 -21v-154l-22 -22h-154l-21 22v154zM328 1708l20 21h154l22 -21v-154l-22 -22h-154l-20 22v154zM184 1411l23 23h119l22 -23v-1388l-22 -23h-119l-23 23v1388z" />
    <glyph glyph-name="eth" unicode="&#xf0;" horiz-adv-x="1562" 
d="M1204 1434l205 -205v-1024l-205 -205h-997l-23 23v624h-94l-14 25v92l14 22h94v627l23 23zM1245 272v891l-121 119h-776v-496h96l15 -22v-92l-15 -25h-96v-495h776z" />
    <glyph glyph-name="ntilde" unicode="&#xf1;" horiz-adv-x="1675" 
d="M539 1542l-23 25l64 170l131 51l118 -49l82 -66l52 -16l47 22l34 86l21 23h70l22 -23l-78 -182l-116 -41l-95 25l-80 71l-77 37l-47 -20l-35 -90l-21 -23h-69zM184 23v1388l23 23h112l27 -17l981 -1157v1151l23 23h116l25 -23v-1388l-25 -23h-108l-31 16l-979 1155v-1148
l-22 -23h-119z" />
    <glyph glyph-name="ograve" unicode="&#xf2;" 
d="M557 1759l18 35h105l39 -27l119 -200l-19 -29h-61l-43 25zM389 -20l-205 204v1065l205 205h815l205 -205v-1065l-205 -204h-815zM348 252l121 -121h655l121 121v932l-121 119h-655l-121 -119v-932z" />
    <glyph glyph-name="oacute" unicode="&#xf3;" 
d="M1024 1757l-160 -196l-41 -25h-61l-19 29l119 200l39 27h105zM389 -20l-205 204v1065l205 205h815l205 -205v-1065l-205 -204h-815zM348 252l121 -121h655l121 121v932l-121 119h-655l-121 -119v-932z" />
    <glyph glyph-name="ocircumflex" unicode="&#xf4;" 
d="M573 1536l-14 51l156 195l24 10h113l25 -10l155 -195l-24 -51h-88l-31 16l-92 162l-95 -162l-30 -16h-99zM389 -20l-205 204v1065l205 205h815l205 -205v-1065l-205 -204h-815zM348 252l121 -121h655l121 121v932l-121 119h-655l-121 -119v-932z" />
    <glyph glyph-name="otilde" unicode="&#xf5;" 
d="M498 1542l-23 25l64 170l131 51l118 -49l82 -66l52 -16l47 22l35 86l20 23h70l22 -23l-78 -182l-116 -41l-95 25l-79 71l-78 37l-47 -20l-35 -90l-21 -23h-69zM389 -20l-205 204v1065l205 205h815l205 -205v-1065l-205 -204h-815zM348 252l121 -121h655l121 121v932
l-121 119h-655l-121 -119v-932z" />
    <glyph glyph-name="odieresis" unicode="&#xf6;" 
d="M551 1708l20 21h154l23 -21v-154l-23 -22h-154l-20 22v154zM858 1708l21 21h153l23 -21v-154l-23 -22h-153l-21 22v154zM389 -20l-205 204v1065l205 205h815l205 -205v-1065l-205 -204h-815zM348 252l121 -121h655l121 121v932l-121 119h-655l-121 -119v-932z" />
    <glyph glyph-name="divide" unicode="&#xf7;" horiz-adv-x="1064" 
d="M438 1178l25 24h166l22 -24v-166l-22 -25h-166l-25 25v166zM920 793l22 -23v-104l-22 -25h-775l-22 25v104l22 23h775zM438 446l25 25h166l22 -25v-165l-22 -25h-166l-25 25v165z" />
    <glyph glyph-name="oslash" unicode="&#xf8;" 
d="M1204 1454l205 -205v-1065l-205 -204h-592l-10 -29l-24 -17h-107l-16 23l8 23h-74l-205 204v1065l205 205h592l14 41l25 16h106l17 -22l-13 -35h74zM469 131h47l412 1172h-459l-121 -119v-932zM1245 252v932l-121 119h-47l-411 -1172h458z" />
    <glyph glyph-name="ugrave" unicode="&#xf9;" 
d="M557 1769l18 35h105l39 -26l119 -201l-19 -29h-61l-43 25zM1384 1434l25 -23v-1206l-205 -205h-815l-205 205v1206l23 23h119l22 -23v-1132l129 -127h639l129 127v1132l23 23h116z" />
    <glyph glyph-name="uacute" unicode="&#xfa;" 
d="M1024 1767l-160 -196l-41 -25h-61l-19 29l119 201l39 26h105zM1384 1434l25 -23v-1206l-205 -205h-815l-205 205v1206l23 23h119l22 -23v-1132l129 -127h639l129 127v1132l23 23h116z" />
    <glyph glyph-name="ucircumflex" unicode="&#xfb;" 
d="M573 1546l-14 51l156 195l24 10h113l25 -10l155 -195l-24 -51h-88l-31 17l-92 161l-95 -161l-30 -17h-99zM1384 1434l25 -23v-1206l-205 -205h-815l-205 205v1206l23 23h119l22 -23v-1132l129 -127h639l129 127v1132l23 23h116z" />
    <glyph glyph-name="udieresis" unicode="&#xfc;" 
d="M551 1718l20 21h154l23 -21v-153l-23 -23h-154l-20 23v153zM858 1718l21 21h153l23 -21v-153l-23 -23h-153l-21 23v153zM1384 1434l25 -23v-1206l-205 -205h-815l-205 205v1206l23 23h119l22 -23v-1132l129 -127h639l129 127v1132l23 23h116z" />
    <glyph glyph-name="yacute" unicode="&#xfd;" horiz-adv-x="1470" 
d="M963 1757l-160 -196l-41 -25h-62l-18 29l119 200l39 27h104zM123 1051v360l22 23h119l23 -23v-324l446 -561l451 561v324l22 23h117l25 -23v-360l-13 -29l-518 -627v-372l-22 -25h-119l-23 25v372l-518 627z" />
    <glyph glyph-name="thorn" unicode="&#xfe;" horiz-adv-x="1409" 
d="M123 23v1388l22 23h119l23 -23v-244h856l205 -204v-490l-205 -205l-856 -2v-243l-23 -23h-119zM287 418h768l129 129v340l-129 129h-768v-598z" />
    <glyph glyph-name="ydieresis" unicode="&#xff;" horiz-adv-x="1470" 
d="M489 1708l21 21h154l22 -21v-154l-22 -22h-154l-21 22v154zM797 1708l20 21h154l22 -21v-154l-22 -22h-154l-20 22v154zM123 1051v360l22 23h119l23 -23v-324l446 -561l451 561v324l22 23h117l25 -23v-360l-13 -29l-518 -627v-372l-22 -25h-119l-23 25v372l-518 627z" />
    <glyph glyph-name="Amacron" unicode="&#x100;" 
d="M506 1716l22 21h568l20 -21v-110l-20 -23h-568l-22 23v110zM207 0l-23 23v1204l209 207h807l209 -207v-1204l-25 -23h-116l-23 23v602h-897v-602l-22 -23h-119zM348 776h897v385l-123 121h-651l-123 -121v-385z" />
    <glyph glyph-name="amacron" unicode="&#x101;" 
d="M506 1716l22 21h568l20 -21v-110l-20 -23h-568l-22 23v110zM207 0l-23 23v1204l209 207h807l209 -207v-1204l-25 -23h-116l-23 23v602h-897v-602l-22 -23h-119zM348 776h897v385l-123 121h-651l-123 -121v-385z" />
    <glyph glyph-name="Abreve" unicode="&#x102;" 
d="M543 1767l24 25h97l22 -23l37 -79l88 -33l94 33l31 79l25 23h96l24 -25l-80 -174l-190 -57l-195 61zM207 0l-23 23v1204l209 207h807l209 -207v-1204l-25 -23h-116l-23 23v602h-897v-602l-22 -23h-119zM348 776h897v385l-123 121h-651l-123 -121v-385z" />
    <glyph glyph-name="abreve" unicode="&#x103;" 
d="M543 1767l24 25h97l22 -23l37 -79l88 -33l94 33l31 79l25 23h96l24 -25l-80 -174l-190 -57l-195 61zM207 0l-23 23v1204l209 207h807l209 -207v-1204l-25 -23h-116l-23 23v602h-897v-602l-22 -23h-119zM348 776h897v385l-123 121h-651l-123 -121v-385z" />
    <glyph glyph-name="Aogonek" unicode="&#x104;" 
d="M1485 -221l43 -66l-29 -39l-219 11l-25 16l-47 76l-2 30l66 193h-4l-23 23v602h-897v-602l-22 -23h-119l-23 23v1204l209 207h807l209 -207v-1204l-25 -23h-4l-86 -223l166 16zM1245 776v385l-123 121h-651l-123 -121v-385h897z" />
    <glyph glyph-name="aogonek" unicode="&#x105;" 
d="M1485 -221l43 -66l-29 -39l-219 11l-25 16l-47 76l-2 30l66 193h-4l-23 23v602h-897v-602l-22 -23h-119l-23 23v1204l209 207h807l209 -207v-1204l-25 -23h-4l-86 -223l166 16zM1245 776v385l-123 121h-651l-123 -121v-385h897z" />
    <glyph glyph-name="Cacute" unicode="&#x106;" horiz-adv-x="1546" 
d="M1006 1757l-160 -196l-41 -25h-62l-18 29l119 200l39 27h104zM1204 1434l205 -205v-152l-25 -22h-116l-23 22v76l-129 129h-647l-121 -119v-891l121 -120h645l131 127v77l23 25h116l25 -25v-151l-205 -205h-815l-205 205v1024l205 205h815z" />
    <glyph glyph-name="cacute" unicode="&#x107;" horiz-adv-x="1546" 
d="M1006 1757l-160 -196l-41 -25h-62l-18 29l119 200l39 27h104zM1204 1434l205 -205v-152l-25 -22h-116l-23 22v76l-129 129h-647l-121 -119v-891l121 -120h645l131 127v77l23 25h116l25 -25v-151l-205 -205h-815l-205 205v1024l205 205h815z" />
    <glyph glyph-name="Cdotaccent" unicode="&#x10a;" horiz-adv-x="1546" 
d="M672 1808l33 31h221l30 -31v-221l-30 -33h-221l-33 33v221zM1204 1434l205 -205v-152l-25 -22h-116l-23 22v76l-129 129h-647l-121 -119v-891l121 -120h645l131 127v77l23 25h116l25 -25v-151l-205 -205h-815l-205 205v1024l205 205h815z" />
    <glyph glyph-name="cdotaccent" unicode="&#x10b;" horiz-adv-x="1546" 
d="M672 1808l33 31h221l30 -31v-221l-30 -33h-221l-33 33v221zM1204 1434l205 -205v-152l-25 -22h-116l-23 22v76l-129 129h-647l-121 -119v-891l121 -120h645l131 127v77l23 25h116l25 -25v-151l-205 -205h-815l-205 205v1024l205 205h815z" />
    <glyph glyph-name="Ccaron" unicode="&#x10c;" horiz-adv-x="1546" 
d="M557 1792h98l31 -16l94 -164l92 164l31 16h88l25 -51l-156 -195l-24 -12h-113l-25 12l-155 195zM1204 1434l205 -205v-152l-25 -22h-116l-23 22v76l-129 129h-647l-121 -119v-891l121 -120h645l131 127v77l23 25h116l25 -25v-151l-205 -205h-815l-205 205v1024l205 205
h815z" />
    <glyph glyph-name="ccaron" unicode="&#x10d;" horiz-adv-x="1546" 
d="M557 1792h98l31 -16l94 -164l92 164l31 16h88l25 -51l-156 -195l-24 -12h-113l-25 12l-155 195zM1204 1434l205 -205v-152l-25 -22h-116l-23 22v76l-129 129h-647l-121 -119v-891l121 -120h645l131 127v77l23 25h116l25 -25v-151l-205 -205h-815l-205 205v1024l205 205
h815z" />
    <glyph glyph-name="Dcaron" unicode="&#x10e;" 
d="M573 1792h99l30 -16l95 -164l92 164l31 16h88l24 -51l-155 -195l-25 -12h-113l-24 12l-156 195zM207 0l-23 23v1390l23 23l997 -2l205 -205v-1024l-205 -205h-997zM348 152h776l121 120v891l-121 119h-776v-1130z" />
    <glyph glyph-name="dcaron" unicode="&#x10f;" 
d="M573 1792h99l30 -16l95 -164l92 164l31 16h88l24 -51l-155 -195l-25 -12h-113l-24 12l-156 195zM207 0l-23 23v1390l23 23l997 -2l205 -205v-1024l-205 -205h-997zM348 152h776l121 120v891l-121 119h-776v-1130z" />
    <glyph glyph-name="Dcroat" unicode="&#x110;" 
d="M1204 1434l205 -205v-1024l-205 -205h-997l-23 23v624h-96l-14 25v92l14 22h96v627l23 23zM1245 272v891l-121 119h-776v-496h96l15 -22v-92l-15 -25h-96v-495h776z" />
    <glyph glyph-name="dcroat" unicode="&#x111;" 
d="M1204 1434l205 -205v-1024l-205 -205h-997l-23 23v624h-96l-14 25v92l14 22h96v627l23 23zM1245 272v891l-121 119h-776v-496h96l15 -22v-92l-15 -25h-96v-495h776z" />
    <glyph glyph-name="Emacron" unicode="&#x112;" horiz-adv-x="1536" 
d="M463 1716l22 21h568l20 -21v-110l-20 -23h-568l-22 23v110zM207 0l-23 23v1388l23 23h1122l23 -23l-19 -104l-37 -25h-948v-489h787l22 -25l-16 -104l-31 -23h-762v-489h955l30 -23l19 -106l-23 -23h-1122z" />
    <glyph glyph-name="emacron" unicode="&#x113;" horiz-adv-x="1536" 
d="M463 1716l22 21h568l20 -21v-110l-20 -23h-568l-22 23v110zM207 0l-23 23v1388l23 23h1122l23 -23l-19 -104l-37 -25h-948v-489h787l22 -25l-16 -104l-31 -23h-762v-489h955l30 -23l19 -106l-23 -23h-1122z" />
    <glyph glyph-name="Edotaccent" unicode="&#x116;" horiz-adv-x="1536" 
d="M662 1808l32 31h221l31 -31v-221l-31 -33h-221l-32 33v221zM207 0l-23 23v1388l23 23h1122l23 -23l-19 -104l-37 -25h-948v-489h787l22 -25l-16 -104l-31 -23h-762v-489h955l30 -23l19 -106l-23 -23h-1122z" />
    <glyph glyph-name="edotaccent" unicode="&#x117;" horiz-adv-x="1536" 
d="M662 1808l32 31h221l31 -31v-221l-31 -33h-221l-32 33v221zM207 0l-23 23v1388l23 23h1122l23 -23l-19 -104l-37 -25h-948v-489h787l22 -25l-16 -104l-31 -23h-762v-489h955l30 -23l19 -106l-23 -23h-1122z" />
    <glyph glyph-name="Eogonek" unicode="&#x118;" horiz-adv-x="1536" 
d="M1374 -221l43 -66l-28 -39l-220 11l-24 16l-47 76l-2 30l65 193h-954l-23 23v1388l23 23h1122l23 -23l-19 -104l-37 -25h-948v-489h787l22 -25l-16 -104l-31 -23h-762v-489h955l30 -23l19 -106l-23 -23h-59l-86 -223l166 16z" />
    <glyph glyph-name="eogonek" unicode="&#x119;" horiz-adv-x="1536" 
d="M1374 -221l43 -66l-28 -39l-220 11l-24 16l-47 76l-2 30l65 193h-954l-23 23v1388l23 23h1122l23 -23l-19 -104l-37 -25h-948v-489h787l22 -25l-16 -104l-31 -23h-762v-489h955l30 -23l19 -106l-23 -23h-59l-86 -223l166 16z" />
    <glyph glyph-name="Ecaron" unicode="&#x11a;" horiz-adv-x="1536" 
d="M547 1792h98l31 -16l94 -164l92 164l31 16h88l25 -51l-156 -195l-25 -12h-112l-25 12l-156 195zM207 0l-23 23v1388l23 23h1122l23 -23l-19 -104l-37 -25h-948v-489h787l22 -25l-16 -104l-31 -23h-762v-489h955l30 -23l19 -106l-23 -23h-1122z" />
    <glyph glyph-name="ecaron" unicode="&#x11b;" horiz-adv-x="1536" 
d="M547 1792h98l31 -16l94 -164l92 164l31 16h88l25 -51l-156 -195l-25 -12h-112l-25 12l-156 195zM207 0l-23 23v1388l23 23h1122l23 -23l-19 -104l-37 -25h-948v-489h787l22 -25l-16 -104l-31 -23h-762v-489h955l30 -23l19 -106l-23 -23h-1122z" />
    <glyph glyph-name="Gbreve" unicode="&#x11e;" 
d="M797 1536l-195 61l-74 170l25 25h96l23 -23l37 -79l88 -33l94 33l31 79l24 23h96l25 -25l-80 -174zM1268 1055l-23 22v76l-129 129h-647l-121 -119v-891l121 -120h645l131 127v286h-426l-22 25l18 84l31 22h538l25 -22v-469l-205 -205h-815l-205 205v1024l205 205h815
l205 -205v-152l-25 -22h-116z" />
    <glyph glyph-name="gbreve" unicode="&#x11f;" 
d="M797 1536l-195 61l-74 170l25 25h96l23 -23l37 -79l88 -33l94 33l31 79l24 23h96l25 -25l-80 -174zM1268 1055l-23 22v76l-129 129h-647l-121 -119v-891l121 -120h645l131 127v286h-426l-22 25l18 84l31 22h538l25 -22v-469l-205 -205h-815l-205 205v1024l205 205h815
l205 -205v-152l-25 -22h-116z" />
    <glyph glyph-name="Gdotaccent" unicode="&#x120;" 
d="M944 1554h-221l-33 33v221l33 31h221l31 -31v-221zM1268 1055l-23 22v76l-129 129h-647l-121 -119v-891l121 -120h645l131 127v286h-426l-22 25l18 84l31 22h538l25 -22v-469l-205 -205h-815l-205 205v1024l205 205h815l205 -205v-152l-25 -22h-116z" />
    <glyph glyph-name="gdotaccent" unicode="&#x121;" 
d="M944 1554h-221l-33 33v221l33 31h221l31 -31v-221zM1268 1055l-23 22v76l-129 129h-647l-121 -119v-891l121 -120h645l131 127v286h-426l-22 25l18 84l31 22h538l25 -22v-469l-205 -205h-815l-205 205v1024l205 205h815l205 -205v-152l-25 -22h-116z" />
    <glyph glyph-name="uni0122" unicode="&#x122;" 
d="M1268 1055l-23 22v76l-129 129h-647l-121 -119v-891l121 -120h645l131 127v286h-426l-22 25l18 84l31 22h538l25 -22v-469l-205 -205h-815l-205 205v1024l205 205h815l205 -205v-152l-25 -22h-116zM731 -178h129l21 -27l-86 -348l-25 -18h-119l-18 26l74 348z" />
    <glyph glyph-name="uni0123" unicode="&#x123;" 
d="M924 1534h-131l-19 27l86 348l25 18h116l21 -26l-74 -349zM1268 1055l-23 22v76l-129 129h-647l-121 -119v-891l121 -120h645l131 127v286h-426l-22 25l18 84l31 22h538l25 -22v-469l-205 -205h-815l-205 205v1024l205 205h815l205 -205v-152l-25 -22h-116z" />
    <glyph glyph-name="Hbar" unicode="&#x126;" horiz-adv-x="1675" 
d="M1565 1147l20 -21v-82l-20 -20h-74v-1001l-25 -23h-116l-23 23v618h-979v-618l-22 -23h-119l-23 23v1001h-73l-21 20v82l21 21h73v264l23 23h119l22 -23v-264h979v264l23 23h116l25 -23v-264h74zM1327 793v231h-979v-231h979z" />
    <glyph glyph-name="hbar" unicode="&#x127;" horiz-adv-x="1675" 
d="M1565 1147l20 -21v-82l-20 -20h-74v-1001l-25 -23h-116l-23 23v618h-979v-618l-22 -23h-119l-23 23v1001h-73l-21 20v82l21 21h73v264l23 23h119l22 -23v-264h979v264l23 23h116l25 -23v-264h74zM1327 793v231h-979v-231h979z" />
    <glyph glyph-name="Imacron" unicode="&#x12a;" horiz-adv-x="532" 
d="M-39 1716l21 21h569l20 -21v-110l-20 -23h-569l-21 23v110zM184 1411l23 23h119l22 -23v-1388l-22 -23h-119l-23 23v1388z" />
    <glyph glyph-name="imacron" unicode="&#x12b;" horiz-adv-x="532" 
d="M-39 1716l21 21h569l20 -21v-110l-20 -23h-569l-21 23v110zM184 1411l23 23h119l22 -23v-1388l-22 -23h-119l-23 23v1388z" />
    <glyph glyph-name="Iogonek" unicode="&#x12e;" horiz-adv-x="532" 
d="M446 -221l43 -66l-28 -39l-219 11l-25 16l-47 76l-2 30l65 193h-26l-23 23v1388l23 23h119l22 -23v-1388l-2 -3h4l-94 -243l166 16z" />
    <glyph glyph-name="iogonek" unicode="&#x12f;" horiz-adv-x="532" 
d="M446 -221l43 -66l-28 -39l-219 11l-25 16l-47 76l-2 30l65 193h-26l-23 23v1388l23 23h119l22 -23v-1388l-2 -3h4l-94 -243l166 16z" />
    <glyph glyph-name="Idotaccent" unicode="&#x130;" horiz-adv-x="532" 
d="M141 1808l31 31h223l31 -31v-221l-31 -33h-223l-31 33v221zM184 1411l23 23h119l22 -23v-1388l-22 -23h-119l-23 23v1388z" />
    <glyph glyph-name="dotlessi" unicode="&#x131;" horiz-adv-x="532" 
d="M184 1411l23 23h119l22 -23v-1388l-22 -23h-119l-23 23v1388z" />
    <glyph glyph-name="uni0136" unicode="&#x136;" 
d="M1245 420l-354 205h-543v-602l-22 -23h-119l-23 23v1388l23 23h119l22 -23v-635h543l354 205v432l23 25h116l25 -25v-500l-373 -208v-13l373 -209v-460l-25 -23h-116l-23 23v397zM707 -197l24 19h129l21 -27l-86 -348l-25 -18h-119l-18 26z" />
    <glyph glyph-name="uni0137" unicode="&#x137;" 
d="M1245 420l-354 205h-543v-602l-22 -23h-119l-23 23v1388l23 23h119l22 -23v-635h543l354 205v432l23 25h116l25 -25v-500l-373 -208v-13l373 -209v-460l-25 -23h-116l-23 23v397zM707 -197l24 19h129l21 -27l-86 -348l-25 -18h-119l-18 26z" />
    <glyph glyph-name="Lacute" unicode="&#x139;" horiz-adv-x="1323" 
d="M492 1757l-160 -196l-41 -25h-62l-18 29l119 200l39 27h104zM209 1434h119l22 -23v-1259h828l22 -23l-18 -106l-31 -23h-944l-23 23l2 1388z" />
    <glyph glyph-name="lacute" unicode="&#x13a;" horiz-adv-x="1323" 
d="M492 1757l-160 -196l-41 -25h-62l-18 29l119 200l39 27h104zM209 1434h119l22 -23v-1259h828l22 -23l-18 -106l-31 -23h-944l-23 23l2 1388z" />
    <glyph glyph-name="uni013B" unicode="&#x13b;" horiz-adv-x="1323" 
d="M209 1434h119l22 -23v-1259h828l22 -23l-18 -106l-31 -23h-944l-23 23l2 1388zM602 -197l25 19h129l20 -27l-86 -348l-24 -18h-119l-19 26z" />
    <glyph glyph-name="uni013C" unicode="&#x13c;" horiz-adv-x="1323" 
d="M209 1434h119l22 -23v-1259h828l22 -23l-18 -106l-31 -23h-944l-23 23l2 1388zM602 -197l25 19h129l20 -27l-86 -348l-24 -18h-119l-19 26z" />
    <glyph glyph-name="Lcaron" unicode="&#x13d;" horiz-adv-x="1323" 
d="M41 1792h98l31 -16l94 -164l92 164l31 16h88l25 -51l-156 -195l-25 -12h-112l-25 12l-155 195zM209 1434h119l22 -23v-1259h828l22 -23l-18 -106l-31 -23h-944l-23 23l2 1388z" />
    <glyph glyph-name="lcaron" unicode="&#x13e;" horiz-adv-x="1323" 
d="M41 1792h98l31 -16l94 -164l92 164l31 16h88l25 -51l-156 -195l-25 -12h-112l-25 12l-155 195zM209 1434h119l22 -23v-1259h828l22 -23l-18 -106l-31 -23h-944l-23 23l2 1388z" />
    <glyph glyph-name="Lslash" unicode="&#x141;" horiz-adv-x="1323" 
d="M1178 152l22 -23l-18 -106l-31 -23h-944l-23 23v661l-284 -127l-23 8l-29 64l11 22l327 146v614l23 23h119l22 -23v-543l281 125l22 -8l29 -63l-8 -23l-324 -143v-604h828z" />
    <glyph glyph-name="lslash" unicode="&#x142;" horiz-adv-x="1323" 
d="M1178 152l22 -23l-18 -106l-31 -23h-944l-23 23v661l-284 -127l-23 8l-29 64l11 22l327 146v614l23 23h119l22 -23v-543l281 125l22 -8l29 -63l-8 -23l-324 -143v-604h828z" />
    <glyph glyph-name="Nacute" unicode="&#x143;" horiz-adv-x="1675" 
d="M1065 1757l-160 -196l-41 -25h-61l-19 29l119 200l39 27h105zM184 23v1388l23 23h112l27 -17l981 -1157v1151l23 23h116l25 -23v-1388l-25 -23h-108l-31 16l-979 1155v-1148l-22 -23h-119z" />
    <glyph glyph-name="nacute" unicode="&#x144;" horiz-adv-x="1675" 
d="M1065 1757l-160 -196l-41 -25h-61l-19 29l119 200l39 27h105zM184 23v1388l23 23h112l27 -17l981 -1157v1151l23 23h116l25 -23v-1388l-25 -23h-108l-31 16l-979 1155v-1148l-22 -23h-119z" />
    <glyph glyph-name="uni0145" unicode="&#x145;" horiz-adv-x="1675" 
d="M184 23v1388l23 23h112l27 -17l981 -1157v1151l23 23h116l25 -23v-1388l-25 -23h-108l-31 16l-979 1155v-1148l-22 -23h-119zM748 -197l24 19h129l21 -27l-86 -348l-25 -18h-119l-18 26z" />
    <glyph glyph-name="uni0146" unicode="&#x146;" horiz-adv-x="1675" 
d="M184 23v1388l23 23h112l27 -17l981 -1157v1151l23 23h116l25 -23v-1388l-25 -23h-108l-31 16l-979 1155v-1148l-22 -23h-119zM748 -197l24 19h129l21 -27l-86 -348l-25 -18h-119l-18 26z" />
    <glyph glyph-name="Ncaron" unicode="&#x147;" horiz-adv-x="1675" 
d="M614 1792h99l30 -16l95 -164l92 164l31 16h88l24 -51l-155 -195l-25 -12h-113l-24 12l-156 195zM184 23v1388l23 23h112l27 -17l981 -1157v1151l23 23h116l25 -23v-1388l-25 -23h-108l-31 16l-979 1155v-1148l-22 -23h-119z" />
    <glyph glyph-name="ncaron" unicode="&#x148;" horiz-adv-x="1675" 
d="M614 1792h99l30 -16l95 -164l92 164l31 16h88l24 -51l-155 -195l-25 -12h-113l-24 12l-156 195zM184 23v1388l23 23h112l27 -17l981 -1157v1151l23 23h116l25 -23v-1388l-25 -23h-108l-31 16l-979 1155v-1148l-22 -23h-119z" />
    <glyph glyph-name="Eng" unicode="&#x14a;" horiz-adv-x="1675" 
d="M1466 1434l25 -23v-1517l-205 -205h-262l-23 24v88l23 25h174l123 127v72l-973 1146v-1148l-22 -23h-119l-23 23v1388l23 23h112l27 -17l981 -1157v1151l23 23h116z" />
    <glyph glyph-name="eng" unicode="&#x14b;" horiz-adv-x="1675" 
d="M1466 1434l25 -23v-1517l-205 -205h-262l-23 24v88l23 25h174l123 127v72l-973 1146v-1148l-22 -23h-119l-23 23v1388l23 23h112l27 -17l981 -1157v1151l23 23h116z" />
    <glyph glyph-name="Omacron" unicode="&#x14c;" 
d="M492 1716l22 21h567l21 -21v-110l-21 -23h-567l-22 23v110zM389 -20l-205 204v1065l205 205h815l205 -205v-1065l-205 -204h-815zM348 252l121 -121h655l121 121v932l-121 119h-655l-121 -119v-932z" />
    <glyph glyph-name="omacron" unicode="&#x14d;" 
d="M492 1716l22 21h567l21 -21v-110l-21 -23h-567l-22 23v110zM389 -20l-205 204v1065l205 205h815l205 -205v-1065l-205 -204h-815zM348 252l121 -121h655l121 121v932l-121 119h-655l-121 -119v-932z" />
    <glyph glyph-name="Ohungarumlaut" unicode="&#x150;" 
d="M895 1751l-160 -197l-41 -24h-61l-19 29l119 200l39 27h105zM1126 1751l-159 -197l-41 -24h-62l-18 29l119 200l39 27h104zM389 -20l-205 204v1065l205 205h815l205 -205v-1065l-205 -204h-815zM348 252l121 -121h655l121 121v932l-121 119h-655l-121 -119v-932z" />
    <glyph glyph-name="ohungarumlaut" unicode="&#x151;" 
d="M895 1751l-160 -197l-41 -24h-61l-19 29l119 200l39 27h105zM1126 1751l-159 -197l-41 -24h-62l-18 29l119 200l39 27h104zM389 -20l-205 204v1065l205 205h815l205 -205v-1065l-205 -204h-815zM348 252l121 -121h655l121 121v932l-121 119h-655l-121 -119v-932z" />
    <glyph glyph-name="OE" unicode="&#x152;" horiz-adv-x="2566" 
d="M2347 152l31 -23l18 -106l-22 -23h-1999l-205 205v1024l205 205h1999l22 -23l-18 -104l-37 -25h-948v-489h786l23 -25l-17 -104l-31 -23h-761v-489h954zM334 279l127 -127h768v1130h-768l-127 -127v-876z" />
    <glyph glyph-name="oe" unicode="&#x153;" horiz-adv-x="2566" 
d="M2347 152l31 -23l18 -106l-22 -23h-1999l-205 205v1024l205 205h1999l22 -23l-18 -104l-37 -25h-948v-489h786l23 -25l-17 -104l-31 -23h-761v-489h954zM334 279l127 -127h768v1130h-768l-127 -127v-876z" />
    <glyph glyph-name="Racute" unicode="&#x154;" 
d="M1024 1757l-160 -196l-41 -25h-61l-19 29l119 200l39 27h105zM207 0l-23 23v1390l23 23l997 -2l205 -205v-320l-190 -204v-15l190 -205v-462l-25 -23h-116l-23 23v442l-151 160h-746v-602l-22 -23h-119zM348 776h754l143 158v229l-121 119h-776v-506z" />
    <glyph glyph-name="racute" unicode="&#x155;" 
d="M1024 1757l-160 -196l-41 -25h-61l-19 29l119 200l39 27h105zM207 0l-23 23v1390l23 23l997 -2l205 -205v-320l-190 -204v-15l190 -205v-462l-25 -23h-116l-23 23v442l-151 160h-746v-602l-22 -23h-119zM348 776h754l143 158v229l-121 119h-776v-506z" />
    <glyph glyph-name="uni0156" unicode="&#x156;" 
d="M207 0l-23 23v1390l23 23l997 -2l205 -205v-320l-190 -204v-15l190 -205v-462l-25 -23h-116l-23 23v442l-151 160h-746v-602l-22 -23h-119zM348 776h754l143 158v229l-121 119h-776v-506zM707 -197l24 19h129l21 -27l-86 -348l-25 -18h-119l-18 26z" />
    <glyph glyph-name="uni0157" unicode="&#x157;" 
d="M207 0l-23 23v1390l23 23l997 -2l205 -205v-320l-190 -204v-15l190 -205v-462l-25 -23h-116l-23 23v442l-151 160h-746v-602l-22 -23h-119zM348 776h754l143 158v229l-121 119h-776v-506zM707 -197l24 19h129l21 -27l-86 -348l-25 -18h-119l-18 26z" />
    <glyph glyph-name="Rcaron" unicode="&#x158;" 
d="M573 1792h99l30 -16l95 -164l92 164l31 16h88l24 -51l-155 -195l-25 -12h-113l-24 12l-156 195zM207 0l-23 23v1390l23 23l997 -2l205 -205v-320l-190 -204v-15l190 -205v-462l-25 -23h-116l-23 23v442l-151 160h-746v-602l-22 -23h-119zM348 776h754l143 158v229
l-121 119h-776v-506z" />
    <glyph glyph-name="rcaron" unicode="&#x159;" 
d="M573 1792h99l30 -16l95 -164l92 164l31 16h88l24 -51l-155 -195l-25 -12h-113l-24 12l-156 195zM207 0l-23 23v1390l23 23l997 -2l205 -205v-320l-190 -204v-15l190 -205v-462l-25 -23h-116l-23 23v442l-151 160h-746v-602l-22 -23h-119zM348 776h754l143 158v229
l-121 119h-776v-506z" />
    <glyph glyph-name="Sacute" unicode="&#x15a;" horiz-adv-x="1538" 
d="M1038 1757l-159 -196l-41 -25h-62l-18 29l119 200l38 27h105zM207 0l-23 23l19 106l30 23h834l121 120v234l-121 121h-678l-205 204v398l205 205h942l23 -23l-19 -104l-30 -25h-836l-121 -119v-266l121 -121h678l205 -205v-366l-205 -205h-940z" />
    <glyph glyph-name="sacute" unicode="&#x15b;" horiz-adv-x="1538" 
d="M1038 1757l-159 -196l-41 -25h-62l-18 29l119 200l38 27h105zM207 0l-23 23l19 106l30 23h834l121 120v234l-121 121h-678l-205 204v398l205 205h942l23 -23l-19 -104l-30 -25h-836l-121 -119v-266l121 -121h678l205 -205v-366l-205 -205h-940z" />
    <glyph glyph-name="Scedilla" unicode="&#x15e;" horiz-adv-x="1538" 
d="M469 776h678l205 -205v-366l-205 -205h-320v-29l11 -49l34 -39l56 -12h82l73 -10l80 -58l31 -116v-93l-12 -79l-68 -80l-104 -25h-322l-20 21v69l20 21h283l59 14l33 41l8 45v45l-14 62l-39 30l-47 9h-82l-86 14l-82 76l-16 94v49h-498l-23 23l19 106l30 23h834l121 120
v234l-121 121h-678l-205 204v398l205 205h942l23 -23l-19 -104l-30 -25h-836l-121 -119v-266z" />
    <glyph glyph-name="scedilla" unicode="&#x15f;" horiz-adv-x="1538" 
d="M469 776h678l205 -205v-366l-205 -205h-320v-29l11 -49l34 -39l56 -12h82l73 -10l80 -58l31 -116v-93l-12 -79l-68 -80l-104 -25h-322l-20 21v69l20 21h283l59 14l33 41l8 45v45l-14 62l-39 30l-47 9h-82l-86 14l-82 76l-16 94v49h-498l-23 23l19 106l30 23h834l121 120
v234l-121 121h-678l-205 204v398l205 205h942l23 -23l-19 -104l-30 -25h-836l-121 -119v-266z" />
    <glyph glyph-name="Scaron" unicode="&#x160;" horiz-adv-x="1538" 
d="M588 1792h98l31 -16l94 -164l92 164l31 16h88l25 -51l-156 -195l-25 -12h-112l-25 12l-156 195zM207 0l-23 23l19 106l30 23h834l121 120v234l-121 121h-678l-205 204v398l205 205h942l23 -23l-19 -104l-30 -25h-836l-121 -119v-266l121 -121h678l205 -205v-366
l-205 -205h-940z" />
    <glyph glyph-name="scaron" unicode="&#x161;" horiz-adv-x="1538" 
d="M588 1792h98l31 -16l94 -164l92 164l31 16h88l25 -51l-156 -195l-25 -12h-112l-25 12l-156 195zM207 0l-23 23l19 106l30 23h834l121 120v234l-121 121h-678l-205 204v398l205 205h942l23 -23l-19 -104l-30 -25h-836l-121 -119v-266l121 -121h678l205 -205v-366
l-205 -205h-940z" />
    <glyph glyph-name="uni0162" unicode="&#x162;" horiz-adv-x="1449" 
d="M1303 1434l24 -23l-18 -119l-31 -22h-471v-1247l-21 -21v-14l9 -49l34 -39l56 -13h82l73 -10l80 -59l31 -115v-92l-12 -82l-68 -80l-104 -24h-322l-18 20v72l18 18h283l61 16l31 39l8 45v48l-14 59l-37 31l-49 8h-80l-86 14l-82 78l-18 94v37l-19 19v1247h-471l-31 22
l-18 119l22 23h1158z" />
    <glyph glyph-name="uni0163" unicode="&#x163;" horiz-adv-x="1449" 
d="M1303 1434l24 -23l-18 -119l-31 -22h-471v-1247l-23 -23h-2v-29l11 -49l34 -39l56 -12h82l73 -10l80 -58l31 -116v-93l-12 -79l-68 -80l-104 -25h-322l-20 21v69l20 21h283l59 14l33 41l8 45v45l-14 62l-39 30l-47 9h-82l-86 14l-82 76l-17 94v53l3 2l-19 17v1247h-471
l-31 22l-18 119l22 23h1158z" />
    <glyph glyph-name="Tcaron" unicode="&#x164;" horiz-adv-x="1449" 
d="M502 1792h98l31 -16l94 -164l92 164l31 16h88l25 -51l-156 -195l-25 -12h-112l-25 12l-156 195zM141 1292l-18 119l22 23h1158l24 -23l-18 -119l-31 -22h-471v-1247l-23 -23h-118l-23 23v1247h-471z" />
    <glyph glyph-name="tcaron" unicode="&#x165;" horiz-adv-x="1449" 
d="M502 1792h98l31 -16l94 -164l92 164l31 16h88l25 -51l-156 -195l-25 -12h-112l-25 12l-156 195zM141 1292l-18 119l22 23h1158l24 -23l-18 -119l-31 -22h-471v-1247l-23 -23h-118l-23 23v1247h-471z" />
    <glyph glyph-name="Tbar" unicode="&#x166;" horiz-adv-x="1449" 
d="M1303 1434l24 -23l-18 -119l-31 -22h-471v-404h201l24 -24v-92l-24 -23h-201v-704l-23 -23h-118l-23 23v704h-205l-22 23v92l22 24h205v404h-471l-31 22l-18 119l22 23h1158z" />
    <glyph glyph-name="tbar" unicode="&#x167;" horiz-adv-x="1449" 
d="M1303 1434l24 -23l-18 -119l-31 -22h-471v-404h201l24 -24v-92l-24 -23h-201v-704l-23 -23h-118l-23 23v704h-205l-22 23v92l22 24h205v404h-471l-31 22l-18 119l22 23h1158z" />
    <glyph glyph-name="Umacron" unicode="&#x16a;" 
d="M492 1726l22 21h567l21 -21v-110l-21 -23h-567l-22 23v110zM1384 1434l25 -23v-1206l-205 -205h-815l-205 205v1206l23 23h119l22 -23v-1132l129 -127h639l129 127v1132l23 23h116z" />
    <glyph glyph-name="umacron" unicode="&#x16b;" 
d="M492 1726l22 21h567l21 -21v-110l-21 -23h-567l-22 23v110zM1384 1434l25 -23v-1206l-205 -205h-815l-205 205v1206l23 23h119l22 -23v-1132l129 -127h639l129 127v1132l23 23h116z" />
    <glyph glyph-name="Uring" unicode="&#x16e;" 
d="M528 1640l41 150l115 82l113 18l102 -14l123 -86l43 -150l-27 -116l-104 -105l-137 -26l-150 32l-90 86zM672 1640l10 -59l41 -49l74 -19l67 15l49 57l9 55l-17 74l-49 43l-59 12l-64 -12l-45 -45zM1384 1434l25 -23v-1206l-205 -205h-815l-205 205v1206l23 23h119
l22 -23v-1132l129 -127h639l129 127v1132l23 23h116z" />
    <glyph glyph-name="uring" unicode="&#x16f;" 
d="M528 1573l43 147l115 84l111 17l104 -15l123 -86l43 -147l-29 -117l-104 -104l-137 -27l-150 33l-90 86zM672 1573l12 -60l39 -49l74 -20l69 14l47 58l9 57l-15 72l-49 45l-61 10l-64 -12l-45 -43zM1384 1434l25 -23v-1206l-205 -205h-815l-205 205v1206l23 23h119
l22 -23v-1132l129 -127h639l129 127v1132l23 23h116z" />
    <glyph glyph-name="Uhungarumlaut" unicode="&#x170;" 
d="M895 1761l-160 -196l-41 -25h-61l-19 29l119 200l39 27h105zM1126 1761l-159 -196l-41 -25h-62l-18 29l119 200l39 27h104zM1384 1434l25 -23v-1206l-205 -205h-815l-205 205v1206l23 23h119l22 -23v-1132l129 -127h639l129 127v1132l23 23h116z" />
    <glyph glyph-name="uhungarumlaut" unicode="&#x171;" 
d="M895 1761l-160 -196l-41 -25h-61l-19 29l119 200l39 27h105zM1126 1761l-159 -196l-41 -25h-62l-18 29l119 200l39 27h104zM1384 1434l25 -23v-1206l-205 -205h-815l-205 205v1206l23 23h119l22 -23v-1132l129 -127h639l129 127v1132l23 23h116z" />
    <glyph glyph-name="Uogonek" unicode="&#x172;" 
d="M1204 0l-94 -242l166 17l24 -15l43 -65l-28 -39l-219 10l-25 17l-47 75l-2 31l72 211h-705l-205 205v1206l23 23h119l22 -23v-1132l129 -127h639l129 127v1132l23 23h116l25 -23v-1206z" />
    <glyph glyph-name="uogonek" unicode="&#x173;" 
d="M1204 0l-94 -242l166 17l24 -15l43 -65l-28 -39l-219 10l-25 17l-47 75l-2 31l72 211h-705l-205 205v1206l23 23h119l22 -23v-1132l129 -127h639l129 127v1132l23 23h116l25 -23v-1206z" />
    <glyph glyph-name="Wcircumflex" unicode="&#x174;" horiz-adv-x="1769" 
d="M662 1536l-15 51l156 195l24 10h113l25 -10l155 -195l-24 -51h-88l-31 16l-92 162l-94 -162l-31 -16h-98zM885 682l-537 -664l-26 -18h-115l-23 23v1388l23 23h119l22 -23v-1143l537 656l536 -656v1143l23 23h117l24 -23v-1388l-24 -23h-115l-25 18z" />
    <glyph glyph-name="wcircumflex" unicode="&#x175;" horiz-adv-x="1769" 
d="M662 1536l-15 51l156 195l24 10h113l25 -10l155 -195l-24 -51h-88l-31 16l-92 162l-94 -162l-31 -16h-98zM885 682l-537 -664l-26 -18h-115l-23 23v1388l23 23h119l22 -23v-1143l537 656l536 -656v1143l23 23h117l24 -23v-1388l-24 -23h-115l-25 18z" />
    <glyph glyph-name="Ycircumflex" unicode="&#x176;" horiz-adv-x="1470" 
d="M512 1536l-14 51l155 195l25 10h113l24 -10l156 -195l-25 -51h-88l-31 16l-92 162l-94 -162l-31 -16h-98zM123 1051v360l22 23h119l23 -23v-324l446 -561l451 561v324l22 23h117l25 -23v-360l-13 -29l-518 -627v-372l-22 -25h-119l-23 25v372l-518 627z" />
    <glyph glyph-name="ycircumflex" unicode="&#x177;" horiz-adv-x="1470" 
d="M512 1536l-14 51l155 195l25 10h113l24 -10l156 -195l-25 -51h-88l-31 16l-92 162l-94 -162l-31 -16h-98zM123 1051v360l22 23h119l23 -23v-324l446 -561l451 561v324l22 23h117l25 -23v-360l-13 -29l-518 -627v-372l-22 -25h-119l-23 25v372l-518 627z" />
    <glyph glyph-name="Ydieresis" unicode="&#x178;" horiz-adv-x="1470" 
d="M489 1708l21 21h154l22 -21v-154l-22 -22h-154l-21 22v154zM797 1708l20 21h154l22 -21v-154l-22 -22h-154l-20 22v154zM123 1051v360l22 23h119l23 -23v-324l446 -561l451 561v324l22 23h117l25 -23v-360l-13 -29l-518 -627v-372l-22 -25h-119l-23 25v372l-518 627z" />
    <glyph glyph-name="Zacute" unicode="&#x179;" horiz-adv-x="1413" 
d="M934 1757l-160 -196l-41 -25h-61l-19 29l119 200l39 27h104zM147 0l-24 23v104l8 31l928 1124h-887l-31 25l-18 104l24 23h1121l22 -23v-90l-6 -29l-940 -1140h897l31 -23l18 -106l-22 -23h-1121z" />
    <glyph glyph-name="zacute" unicode="&#x17a;" horiz-adv-x="1413" 
d="M934 1757l-160 -196l-41 -25h-61l-19 29l119 200l39 27h104zM147 0l-24 23v104l8 31l928 1124h-887l-31 25l-18 104l24 23h1121l22 -23v-90l-6 -29l-940 -1140h897l31 -23l18 -106l-22 -23h-1121z" />
    <glyph glyph-name="Zdotaccent" unicode="&#x17b;" horiz-adv-x="1413" 
d="M600 1808l33 31h221l31 -31v-221l-31 -33h-221l-33 33v221zM147 0l-24 23v104l8 31l928 1124h-887l-31 25l-18 104l24 23h1121l22 -23v-90l-6 -29l-940 -1140h897l31 -23l18 -106l-22 -23h-1121z" />
    <glyph glyph-name="zdotaccent" unicode="&#x17c;" horiz-adv-x="1413" 
d="M600 1808l33 31h221l31 -31v-221l-31 -33h-221l-33 33v221zM147 0l-24 23v104l8 31l928 1124h-887l-31 25l-18 104l24 23h1121l22 -23v-90l-6 -29l-940 -1140h897l31 -23l18 -106l-22 -23h-1121z" />
    <glyph glyph-name="Zcaron" unicode="&#x17d;" horiz-adv-x="1413" 
d="M485 1792h99l30 -16l95 -164l92 164l30 16h89l24 -51l-156 -195l-24 -12h-113l-24 12l-156 195zM147 0l-24 23v104l8 31l928 1124h-887l-31 25l-18 104l24 23h1121l22 -23v-90l-6 -29l-940 -1140h897l31 -23l18 -106l-22 -23h-1121z" />
    <glyph glyph-name="zcaron" unicode="&#x17e;" horiz-adv-x="1413" 
d="M485 1792h99l30 -16l95 -164l92 164l30 16h89l24 -51l-156 -195l-24 -12h-113l-24 12l-156 195zM147 0l-24 23v104l8 31l928 1124h-887l-31 25l-18 104l24 23h1121l22 -23v-90l-6 -29l-940 -1140h897l31 -23l18 -106l-22 -23h-1121z" />
    <glyph glyph-name="uni0218" unicode="&#x218;" horiz-adv-x="1538" 
d="M207 0l-23 23l19 106l30 23h834l121 120v234l-121 121h-678l-205 204v398l205 205h942l23 -23l-19 -104l-30 -25h-836l-121 -119v-266l121 -121h678l205 -205v-366l-205 -205h-940zM680 -197l25 19h129l20 -27l-86 -348l-25 -18h-118l-19 26z" />
    <glyph glyph-name="uni0219" unicode="&#x219;" horiz-adv-x="1538" 
d="M207 0l-23 23l19 106l30 23h834l121 120v234l-121 121h-678l-205 204v398l205 205h942l23 -23l-19 -104l-30 -25h-836l-121 -119v-266l121 -121h678l205 -205v-366l-205 -205h-940zM680 -197l25 19h129l20 -27l-86 -348l-25 -18h-118l-19 26z" />
    <glyph glyph-name="uni021A" unicode="&#x21a;" horiz-adv-x="1449" 
d="M141 1292l-18 119l22 23h1158l24 -23l-18 -119l-31 -22h-471v-1247l-23 -23h-118l-23 23v1247h-471zM635 -197l24 19h129l21 -27l-86 -348l-25 -18h-118l-19 26z" />
    <glyph glyph-name="uni021B" unicode="&#x21b;" horiz-adv-x="1449" 
d="M141 1292l-18 119l22 23h1158l24 -23l-18 -119l-31 -22h-471v-1247l-23 -23h-118l-23 23v1247h-471zM635 -197l24 19h129l21 -27l-86 -348l-25 -18h-118l-19 26z" />
    <glyph glyph-name="gravecomb" unicode="&#x300;" horiz-adv-x="0" 
d="M-487 1604l18 34h104l39 -26l119 -201l-18 -29h-62l-43 25z" />
    <glyph glyph-name="acutecomb" unicode="&#x301;" horiz-adv-x="0" 
d="M-207 1604l-160 -197l-41 -25h-61l-18 29l118 201l39 26h105z" />
    <glyph glyph-name="uni0302" unicode="&#x302;" horiz-adv-x="0" 
d="M-672 1393l-14 51l156 194l24 11h113l24 -11l156 -194l-25 -51h-88l-30 16l-93 162l-94 -162l-30 -16h-99z" />
    <glyph glyph-name="tildecomb" unicode="&#x303;" horiz-adv-x="0" 
d="M-823 1389l-23 24l64 170l131 51l119 -49l81 -65l52 -17l47 23l35 86l20 22h70l22 -22l-78 -182l-116 -41l-95 24l-79 72l-78 37l-47 -21l-35 -90l-21 -22h-69z" />
    <glyph glyph-name="uni0304" unicode="&#x304;" horiz-adv-x="0" 
d="M-815 1618l22 20h568l20 -20v-111l-20 -22h-568l-22 22v111z" />
    <glyph glyph-name="uni0306" unicode="&#x306;" horiz-adv-x="0" 
d="M-743 1614l24 24h96l23 -22l37 -80l88 -33l94 33l31 80l24 22h97l24 -24l-80 -174l-190 -58l-195 62z" />
    <glyph glyph-name="uni0307" unicode="&#x307;" horiz-adv-x="0" 
d="M-375 1638l33 31h221l31 -31v-221l-31 -33h-221l-33 33v221z" />
    <glyph glyph-name="uni0308" unicode="&#x308;" horiz-adv-x="0" 
d="M-629 1630l21 21h153l23 -21v-153l-23 -23h-153l-21 23v153zM-322 1630l21 21h154l22 -21v-153l-22 -23h-154l-21 23v153z" />
    <glyph glyph-name="uni030A" unicode="&#x30a;" horiz-adv-x="0" 
d="M-743 1544l43 148l114 84l111 16l104 -14l123 -86l43 -148l-28 -117l-105 -104l-137 -27l-150 33l-90 86zM-600 1544l12 -59l39 -49l74 -21l69 15l48 57l8 57l-15 72l-49 45l-61 10l-64 -12l-45 -43z" />
    <glyph glyph-name="uni030B" unicode="&#x30b;" horiz-adv-x="0" 
d="M-438 1604l-160 -197l-41 -25h-61l-19 29l119 201l39 26h104zM-207 1604l-160 -197l-41 -25h-61l-18 29l118 201l39 26h105z" />
    <glyph glyph-name="uni030C" unicode="&#x30c;" horiz-adv-x="0" 
d="M-672 1649h99l30 -17l94 -164l93 164l30 17h88l25 -52l-156 -194l-24 -12h-113l-24 12l-156 194z" />
    <glyph glyph-name="uni0312" unicode="&#x312;" horiz-adv-x="0" 
d="M-219 1444l-25 -19h-131l-18 27l86 348l24 19h117l21 -27z" />
    <glyph glyph-name="uni0326" unicode="&#x326;" horiz-adv-x="0" 
d="M-442 -197l24 19h129l21 -27l-86 -348l-25 -18h-119l-18 26z" />
    <glyph glyph-name="uni0327" unicode="&#x327;" horiz-adv-x="0" 
d="M-674 25h82l21 -21v-33l10 -49l35 -39l55 -12h82l74 -10l79 -58l31 -116v-93l-12 -79l-68 -80l-104 -25h-322l-20 21v69l20 21h283l59 14l33 41l8 45v45l-14 62l-39 30l-47 9h-82l-86 14l-82 76l-16 94v53z" />
    <glyph glyph-name="uni0328" unicode="&#x328;" horiz-adv-x="0" 
d="M-211 -307l-29 -39l-219 10l-24 17l-47 75l-2 31l71 213h111l-94 -244l165 17l25 -15z" />
    <glyph glyph-name="Wgrave" unicode="&#x1e80;" horiz-adv-x="1769" 
d="M645 1759l19 35h104l39 -27l119 -200l-19 -29h-61l-43 25zM885 682l-537 -664l-26 -18h-115l-23 23v1388l23 23h119l22 -23v-1143l537 656l536 -656v1143l23 23h117l24 -23v-1388l-24 -23h-115l-25 18z" />
    <glyph glyph-name="wgrave" unicode="&#x1e81;" horiz-adv-x="1769" 
d="M645 1759l19 35h104l39 -27l119 -200l-19 -29h-61l-43 25zM885 682l-537 -664l-26 -18h-115l-23 23v1388l23 23h119l22 -23v-1143l537 656l536 -656v1143l23 23h117l24 -23v-1388l-24 -23h-115l-25 18z" />
    <glyph glyph-name="Wacute" unicode="&#x1e82;" horiz-adv-x="1769" 
d="M1112 1757l-160 -196l-41 -25h-61l-19 29l119 200l39 27h105zM885 682l-537 -664l-26 -18h-115l-23 23v1388l23 23h119l22 -23v-1143l537 656l536 -656v1143l23 23h117l24 -23v-1388l-24 -23h-115l-25 18z" />
    <glyph glyph-name="wacute" unicode="&#x1e83;" horiz-adv-x="1769" 
d="M1112 1757l-160 -196l-41 -25h-61l-19 29l119 200l39 27h105zM885 682l-537 -664l-26 -18h-115l-23 23v1388l23 23h119l22 -23v-1143l537 656l536 -656v1143l23 23h117l24 -23v-1388l-24 -23h-115l-25 18z" />
    <glyph glyph-name="Wdieresis" unicode="&#x1e84;" horiz-adv-x="1769" 
d="M639 1708l20 21h154l23 -21v-154l-23 -22h-154l-20 22v154zM946 1708l21 21h153l23 -21v-154l-23 -22h-153l-21 22v154zM885 682l-537 -664l-26 -18h-115l-23 23v1388l23 23h119l22 -23v-1143l537 656l536 -656v1143l23 23h117l24 -23v-1388l-24 -23h-115l-25 18z" />
    <glyph glyph-name="wdieresis" unicode="&#x1e85;" horiz-adv-x="1769" 
d="M639 1708l20 21h154l23 -21v-154l-23 -22h-154l-20 22v154zM946 1708l21 21h153l23 -21v-154l-23 -22h-153l-21 22v154zM885 682l-537 -664l-26 -18h-115l-23 23v1388l23 23h119l22 -23v-1143l537 656l536 -656v1143l23 23h117l24 -23v-1388l-24 -23h-115l-25 18z" />
    <glyph glyph-name="uni1E9E" unicode="&#x1e9e;" horiz-adv-x="1470" 
d="M440 762l37 29h590l117 165v199l-129 127h-639l-129 -127v-1132l-23 -23h-119l-22 23v1206l205 205h815l205 -205v-301l-160 -211v-10l160 -209v-293l-205 -205h-692l-29 29l18 94l37 29h578l129 127v194l-117 166h-616l-27 29z" />
    <glyph glyph-name="Ygrave" unicode="&#x1ef2;" horiz-adv-x="1470" 
d="M496 1759l18 35h104l39 -27l119 -200l-18 -29h-62l-43 25zM123 1051v360l22 23h119l23 -23v-324l446 -561l451 561v324l22 23h117l25 -23v-360l-13 -29l-518 -627v-372l-22 -25h-119l-23 25v372l-518 627z" />
    <glyph glyph-name="ygrave" unicode="&#x1ef3;" horiz-adv-x="1470" 
d="M496 1759l18 35h104l39 -27l119 -200l-18 -29h-62l-43 25zM123 1051v360l22 23h119l23 -23v-324l446 -561l451 561v324l22 23h117l25 -23v-360l-13 -29l-518 -627v-372l-22 -25h-119l-23 25v372l-518 627z" />
    <glyph glyph-name="endash" unicode="&#x2013;" horiz-adv-x="1026" 
d="M799 684l22 -22v-93l-22 -22h-572l-22 22v93l22 22h572z" />
    <glyph glyph-name="emdash" unicode="&#x2014;" horiz-adv-x="1583" 
d="M1356 684l22 -22v-93l-22 -22h-1129l-22 22v93l22 22h1129z" />
    <glyph glyph-name="quoteleft" unicode="&#x2018;" horiz-adv-x="620" 
d="M352 1372l13 10h63l10 -14l-43 -172l-12 -10h-59l-9 12z" />
    <glyph glyph-name="quoteright" unicode="&#x2019;" horiz-adv-x="620" 
d="M260 1415l25 19h129l20 -27l-86 -346l-24 -19h-119l-19 27z" />
    <glyph glyph-name="quotesinglbase" unicode="&#x201a;" horiz-adv-x="620" 
d="M260 229l25 19h129l20 -27l-86 -348l-24 -18h-119l-19 26z" />
    <glyph glyph-name="quotedblleft" unicode="&#x201c;" horiz-adv-x="952" 
d="M340 1061l-25 -19h-131l-18 27l86 348l24 19h117l21 -27zM672 1061l-25 -19h-129l-20 27l86 348l24 19h119l18 -27z" />
    <glyph glyph-name="quotedblright" unicode="&#x201d;" horiz-adv-x="1050" 
d="M352 1415l25 19h129l20 -27l-86 -346l-24 -21h-119l-18 27zM690 1415l27 19h129l20 -27l-86 -346l-26 -21h-117l-19 27z" />
    <glyph glyph-name="quotedblbase" unicode="&#x201e;" horiz-adv-x="712" 
d="M506 248l20 -27l-86 -348l-24 -18h-119l-18 26l73 348l25 19h129z" />
    <glyph glyph-name="dagger" unicode="&#x2020;" horiz-adv-x="790" 
d="M678 1176l12 -9v-37l-12 -10h-242v-454l-10 -11h-59l-13 11v454h-239l-13 10v37l13 9h239v249l13 9h59l10 -9v-249h242z" />
    <glyph glyph-name="bullet" unicode="&#x2022;" horiz-adv-x="1112" 
d="M494 827l30 31h217l31 -31v-217l-31 -30h-217l-30 30v217z" />
    <glyph glyph-name="ellipsis" unicode="&#x2026;" horiz-adv-x="1288" 
d="M184 184l23 23h162l22 -23v-161l-22 -23h-162l-23 23v161zM541 184l22 23h162l23 -23v-161l-23 -23h-162l-22 23v161zM897 184l23 23h161l23 -23v-161l-23 -23h-161l-23 23v161z" />
    <glyph glyph-name="perthousand" unicode="&#x2030;" horiz-adv-x="2334" 
d="M287 1434h346l133 -134v-450l-133 -133h-346l-133 133v450zM1169 1026h-53l-10 18l274 379l19 11h51l10 -19l-272 -381zM236 1272v-393l10 -11l375 465l-25 25h-272zM684 879v393l-8 8l-375 -465l23 -22h272zM1024 717h346l133 -133v-451l-133 -133h-346l-133 133v451z
M2109 717l134 -133v-451l-134 -133h-346l-133 133v451l133 133h346zM973 555v-393l10 -10l375 464l-25 25h-272zM1712 555v-393l10 -10l375 466l-22 23h-275zM1421 162v393l-8 8l-375 -465l23 -22h272zM2161 162v393l-7 6l-376 -463l22 -22h275zM416 403h53l8 -18l-266 -375
l-18 -10h-54l-10 18l268 377z" />
    <glyph glyph-name="second" unicode="&#x2033;" horiz-adv-x="827" 
d="M199 1415l24 19h129l21 -27l-86 -346l-25 -21h-119l-18 27zM528 1415l27 19h129l18 -27l-84 -346l-26 -21h-117l-20 27z" />
    <glyph glyph-name="guilsinglleft" unicode="&#x2039;" horiz-adv-x="946" 
d="M813 352l4 -33l-61 -77l-33 -4l-600 452l600 453l33 -4l61 -76l-4 -33l-489 -340z" />
    <glyph glyph-name="guilsinglright" unicode="&#x203a;" horiz-adv-x="946" 
d="M135 352l488 338l-488 340l-6 33l64 76l30 4l600 -453l-600 -452l-30 4l-64 77z" />
    <glyph glyph-name="uni203D" unicode="&#x203d;" horiz-adv-x="1497" 
d="M1153 1434l205 -205v-387l-205 -205h-297l-127 -129v-150l-2 -2v-12l-22 -22h-117l-25 22l-14 838l22 24h148l22 -24l-8 -432l37 36h297l127 129v240l-127 127h-881l-30 25l-19 104l25 23h991zM719 182l24 -22l5 -137l-23 -23h-162l-22 23l4 137l24 22h150z" />
    <glyph glyph-name="uni2081" unicode="&#x2081;" horiz-adv-x="980" 
d="M184 -346v51l13 12h252v566h-240l-16 12l-9 51l13 12h323l10 -12v-629h254l13 -12v-51l-13 -12h-587z" />
    <glyph glyph-name="Euro" unicode="&#x20ac;" horiz-adv-x="1454" 
d="M1268 1055l-23 22v76l-129 129h-647l-121 -119v-252h406l30 -30v-52l-30 -30h-406v-162h406l30 -31v-51l-30 -31h-406v-252l121 -120h645l131 127v77l23 25h116l25 -25v-151l-205 -205h-815l-205 205v319h-133l-31 31v51l31 31h133v162h-133l-31 30v52l31 30h133v318
l205 205h815l205 -205v-152l-25 -22h-116z" />
    <glyph glyph-name="uni2116" unicode="&#x2116;" horiz-adv-x="3119" 
d="M184 23v1388l23 23h112l27 -17l981 -1157v1151l23 23h116l25 -23v-1388l-25 -23h-108l-31 16l-979 1155v-1148l-22 -23h-119zM1974 348l-205 205v676l205 205h754l205 -205v-676l-205 -205h-754zM1933 616l127 -129h582l127 129v549l-127 127h-582l-127 -127v-549z
M1769 102l21 21h1122l23 -21v-79l-23 -23h-1122l-21 23v79z" />
    <glyph glyph-name="uni2120" unicode="&#x2120;" horiz-adv-x="1654" 
d="M166 717l-12 12l8 51l16 13h418l59 59v119l-59 59h-340l-102 103v198l102 103h471l10 -13l-8 -51l-14 -12h-420l-59 -60v-133l59 -59h340l102 -102v-185l-102 -102h-469zM1212 1094l269 331l12 9h57l13 -13v-692l-13 -12h-59l-10 12v569l-269 -325l-268 325v-569l-12 -12
h-60l-10 12v692l10 13h60l12 -9z" />
    <glyph glyph-name="trademark" unicode="&#x2122;" horiz-adv-x="1658" 
d="M162 1364l-8 57l12 13h577l13 -13l-11 -57l-14 -12h-235v-623l-13 -12h-57l-12 12v623h-236zM1217 1094l268 331l12 9h57l13 -13v-692l-13 -12h-59l-10 12v569l-268 -325l-269 325v-569l-12 -12h-57l-13 12v692l13 13h57l12 -9z" />
    <glyph glyph-name="oneeighth" unicode="&#x215b;" horiz-adv-x="1998" 
d="M154 729v51l12 13h252v565h-240l-16 12l-8 51l12 13h323l11 -13v-628h254l12 -13v-51l-12 -12h-588zM1313 1026h53q13 0 18 8l273 381q5 7 2 13t-12 6h-54q-13 0 -18 -11l-272 -379q-5 -8 -2 -13t12 -5zM1294 102v152l76 96v12l-76 97v155l103 103h407l103 -103v-155
l-74 -97v-12l74 -96v-152l-103 -102h-407zM1376 475l58 -82h333l58 82v103l-64 63h-319l-66 -63v-103zM662 403q-14 0 -19 -8l-268 -377q-5 -8 -2 -13t12 -5h53q12 0 19 10l266 375q11 18 -8 18h-53zM1376 139l66 -63h319l64 63v101l-58 82h-333l-58 -82v-101z" />
    <glyph glyph-name="threeeighths" unicode="&#x215c;" horiz-adv-x="1998" 
d="M154 1423l12 11h498l102 -103v-155l-74 -97v-10l74 -98v-152l-102 -102h-498l-12 12l8 51l16 13h443l63 63v98l-61 84h-338l-17 11l-8 53l12 10h351l61 84v98l-63 64h-443l-16 12zM1327 1026h53q14 0 19 8l270 381q11 19 -8 19h-53q-14 0 -19 -11l-272 -379q-5 -8 -2 -13
t12 -5zM1294 102v152l76 96v12l-76 97v155l103 103h407l103 -103v-155l-74 -97v-12l74 -96v-152l-103 -102h-407zM1376 475l58 -82h333l58 82v103l-64 63h-319l-66 -63v-103zM653 403q-15 0 -18 -8l-268 -377q-11 -18 8 -18h55q12 0 19 10l266 375q5 7 2 12.5t-12 5.5h-52z
M1376 139l66 -63h319l64 63v101l-58 82h-333l-58 -82v-101z" />
    <glyph glyph-name="fiveeighths" unicode="&#x215d;" horiz-adv-x="1994" 
d="M166 717l-12 12l8 51l16 13h440l64 63v111l-64 63h-362l-102 103v288l12 13h588l12 -13l-10 -51l-15 -12h-505v-189l63 -63h363l102 -102v-185l-102 -102h-496zM1296 1026h56q13 0 18 8l270 381q5 7 2 13t-12 6h-51q-13 0 -18 -11l-273 -379q-11 -18 8 -18zM1294 102v152
l76 96v12l-76 97v155l103 103h407l103 -103v-155l-74 -97v-12l74 -96v-152l-103 -102h-407zM1376 475l58 -82h333l58 82v103l-64 63h-319l-66 -63v-103zM651 403q-13 0 -18 -8l-268 -377q-5 -8 -2 -13t12 -5h53q11 0 18 10l267 375q4 7 1 12.5t-12 5.5h-51zM1376 139l66 -63
h319l64 63v101l-58 82h-333l-58 -82v-101z" />
    <glyph glyph-name="seveneighths" unicode="&#x215e;" horiz-adv-x="1998" 
d="M367 717l-11 16l318 625h-496l-16 12l-8 51l12 13h588l12 -13v-45l-4 -16l-316 -629l-20 -14h-59zM1317 1026h55q14 0 19 8l270 381q5 7 2 13t-12 6h-52q-13 0 -18 -11l-272 -379q-11 -18 8 -18zM1294 102v152l76 96v12l-76 97v155l103 103h407l103 -103v-155l-74 -97
v-12l74 -96v-152l-103 -102h-407zM1376 475l58 -82h333l58 82v103l-64 63h-319l-66 -63v-103zM616 403q-15 0 -18 -8l-268 -377q-11 -18 8 -18h55q12 0 19 10l266 375q5 7 2 12.5t-12 5.5h-52zM1376 139l66 -63h319l64 63v101l-58 82h-333l-58 -82v-101z" />
    <glyph glyph-name="minus" unicode="&#x2212;" horiz-adv-x="1064" 
d="M920 793l22 -23v-104l-22 -25h-775l-22 25v104l22 23h775z" />
    <glyph glyph-name="approxequal" unicode="&#x2248;" horiz-adv-x="886" 
d="M145 596l-22 25l63 170l131 51l119 -49l82 -66l51 -16l47 22l35 86l21 23h69l23 -23l-78 -182l-117 -41l-94 25l-80 71l-78 37l-47 -20l-34 -91l-21 -22h-70zM147 242l-22 24l63 170l131 51l119 -49l80 -65l51 -17l47 23l35 86l23 22h67l23 -22l-78 -182l-117 -41l-92 24
l-80 72l-78 37l-47 -21l-34 -90l-23 -22h-68z" />
    <glyph glyph-name="notequal" unicode="&#x2260;" horiz-adv-x="1064" 
d="M920 811h-273l-67 -195h340l22 -22v-105l-22 -22h-390l-151 -449l-27 -18h-116l-19 27l150 440h-222l-22 22v105l22 22h273l65 195h-338l-22 25v104l22 23h390l153 452l27 19h114l19 -25l-152 -446h224l22 -23v-104z" />
    <glyph glyph-name="lessequal" unicode="&#x2264;" horiz-adv-x="946" 
d="M813 414l4 -31l-61 -74l-33 -4l-600 430l600 430l33 -4l61 -71l-4 -31l-489 -324zM143 172h660l20 -20v-78l-20 -21h-660l-20 21v78z" />
    <glyph glyph-name="greaterequal" unicode="&#x2265;" horiz-adv-x="946" 
d="M135 414l488 321l-488 324l-6 31l64 71l30 4l600 -430l-600 -430l-30 4l-64 74zM803 172l20 -20v-78l-20 -21h-660l-20 21v78l20 20h660z" />
    <glyph glyph-name="uni24C5" unicode="&#x24c5;" horiz-adv-x="1546" 
d="M184 23v1390l23 23l997 -2l205 -205v-600l-205 -205h-856v-401l-22 -23h-119zM348 573h768l129 129v453l-129 127h-768v-709z" />
    <glyph glyph-name="A.ss01" 
d="M1200 1434l209 -207v-1204l-25 -23h-116l-23 23v139l-897 600v-739l-22 -23h-119l-23 23v1204l209 207h807zM1245 342v819l-123 121h-651l-123 -121v-219z" />
    <glyph glyph-name="B.ss01" 
d="M207 0l-23 23v1390l23 23l997 -2l205 -205v-426l-160 -211v-10l160 -209v-168l-205 -205h-997zM348 1147l785 -485l112 159v342l-121 119h-776v-135zM348 152h776l121 120v88l-112 160l-785 484v-852z" />
    <glyph glyph-name="E.ss01" horiz-adv-x="1536" 
d="M184 1282v129l23 23h1122l23 -23l-19 -104l-37 -25h-1112zM193 793h942l22 -25l-16 -104l-31 -23h-917v152zM184 152h1119l30 -23l19 -106l-23 -23h-1122l-23 23v129z" />
    <glyph glyph-name="F.ss01" horiz-adv-x="1536" 
d="M184 1411l23 23h1122l23 -23l-19 -104l-30 -25h-1117zM184 793h951l22 -23l-16 -106l-31 -23h-762v-618l-22 -23h-119l-23 23v770z" />
    <glyph glyph-name="H.ss01" horiz-adv-x="1675" 
d="M348 1411v-387h-164v387l23 23h119zM1466 1434l25 -23v-387h-164v387l23 23h116zM1491 793v-770l-25 -23h-116l-23 23v618h-979v-618l-22 -23h-119l-23 23v770h1307z" />
    <glyph glyph-name="K.ss01" 
d="M1245 319l-897 590v-886l-22 -23h-119l-23 23v1388l23 23h119l22 -23v-330l543 -356l354 166v522l23 25h116l25 -25v-596l-371 -178v-10l371 -244v-362l-25 -23h-116l-23 23v296z" />
    <glyph glyph-name="M.ss01" horiz-adv-x="1769" 
d="M348 23l-22 -23h-119l-23 23v1388l23 23h117l24 -19v-1392zM1421 1415l25 19h115l24 -23v-1388l-24 -23h-117l-23 23v1142l-536 -655l-94 119z" />
    <glyph glyph-name="O.ss01" 
d="M389 -20l-205 204v1065l205 205h815l205 -205v-1065l-205 -204h-815zM348 252l121 -121h655l121 121v932l-121 119h-655l-121 -119v-932zM727 786h139v-139h-139v139z" />
    <glyph glyph-name="P.ss01" horiz-adv-x="1546" 
d="M184 1413l23 23l997 -2l205 -205v-600l-205 -205h-856v-401l-22 -23h-119l-23 23v550h932l129 129v453l-129 127h-932v131z" />
    <glyph glyph-name="R.ss01" 
d="M184 1413l23 23l997 -2l205 -205v-320l-190 -204v-15l190 -205v-462l-25 -23h-116l-23 23v442l-151 160h-746v-602l-22 -23h-119l-23 23v753h918l143 158v229l-121 119h-940v131z" />
    <glyph glyph-name="S.ss01" horiz-adv-x="1538" 
d="M207 0l-23 23l19 106l30 23h785l121 120v97l-955 626v234l205 205h942l23 -23l-19 -104l-30 -25h-799l-121 -119v-102l967 -635v-221l-205 -205h-940z" />
    <glyph glyph-name="T.ss01" horiz-adv-x="1449" 
d="M172 1270l-31 22l-18 119l22 23h1158l24 -23l-18 -119l-31 -22h-1106zM807 776v-753l-23 -23h-118l-23 23v753h164z" />
    <glyph glyph-name="X.ss01" horiz-adv-x="1568" 
d="M197 1004l-13 26v381l23 23h119l22 -23v-328l1024 -649l12 -28v-383l-24 -23h-117l-22 23v329zM1221 1083v328l22 23h117l24 -23v-381l-12 -26zM348 352v-329l-22 -23h-119l-23 23v383l13 28z" />
    <glyph glyph-name="Y.ss01" horiz-adv-x="1470" 
d="M135 1022l-12 29v360l22 23h119l23 -23v-244zM1184 1087v324l22 23h117l25 -23v-360l-13 -29l-518 -627v-372l-22 -25h-119l-23 25v403z" />
    <glyph glyph-name="i.loclTRK" horiz-adv-x="532" 
d="M141 1808l31 31h223l31 -31v-221l-31 -33h-223l-31 33v221zM184 1411l23 23h119l22 -23v-1388l-22 -23h-119l-23 23v1388z" />
    <glyph glyph-name="a.ss01" 
d="M1200 1434l209 -207v-1204l-25 -23h-116l-23 23v139l-897 600v-739l-22 -23h-119l-23 23v1204l209 207h807zM1245 342v819l-123 121h-651l-123 -121v-219z" />
    <glyph glyph-name="b.ss01" 
d="M207 0l-23 23v1390l23 23l997 -2l205 -205v-426l-160 -211v-10l160 -209v-168l-205 -205h-997zM348 1147l785 -485l112 159v342l-121 119h-776v-135zM348 152h776l121 120v88l-112 160l-785 484v-852z" />
    <glyph glyph-name="e.ss01" horiz-adv-x="1536" 
d="M184 1282v129l23 23h1122l23 -23l-19 -104l-37 -25h-1112zM193 793h942l22 -25l-16 -104l-31 -23h-917v152zM184 152h1119l30 -23l19 -106l-23 -23h-1122l-23 23v129z" />
    <glyph glyph-name="f.ss01" horiz-adv-x="1536" 
d="M184 1411l23 23h1122l23 -23l-19 -104l-30 -25h-1117zM184 793h951l22 -23l-16 -106l-31 -23h-762v-618l-22 -23h-119l-23 23v770z" />
    <glyph glyph-name="h.ss01" horiz-adv-x="1675" 
d="M348 1411v-387h-164v387l23 23h119zM1466 1434l25 -23v-387h-164v387l23 23h116zM1491 793v-770l-25 -23h-116l-23 23v618h-979v-618l-22 -23h-119l-23 23v770h1307z" />
    <glyph glyph-name="k.ss01" 
d="M1245 319l-897 590v-886l-22 -23h-119l-23 23v1388l23 23h119l22 -23v-330l543 -356l354 166v522l23 25h116l25 -25v-596l-371 -178v-10l371 -244v-362l-25 -23h-116l-23 23v296z" />
    <glyph glyph-name="m.ss01" horiz-adv-x="1769" 
d="M348 23l-22 -23h-119l-23 23v1388l23 23h117l24 -19v-1392zM1421 1415l25 19h115l24 -23v-1388l-24 -23h-117l-23 23v1142l-536 -655l-94 119z" />
    <glyph glyph-name="o.ss01" 
d="M389 -20l-205 204v1065l205 205h815l205 -205v-1065l-205 -204h-815zM348 252l121 -121h655l121 121v932l-121 119h-655l-121 -119v-932zM727 786h139v-139h-139v139z" />
    <glyph glyph-name="p.ss01" horiz-adv-x="1546" 
d="M184 1413l23 23l997 -2l205 -205v-600l-205 -205h-856v-401l-22 -23h-119l-23 23v550h932l129 129v453l-129 127h-932v131z" />
    <glyph glyph-name="r.ss01" 
d="M184 1413l23 23l997 -2l205 -205v-320l-190 -204v-15l190 -205v-462l-25 -23h-116l-23 23v442l-151 160h-746v-602l-22 -23h-119l-23 23v753h918l143 158v229l-121 119h-940v131z" />
    <glyph glyph-name="s.ss01" horiz-adv-x="1538" 
d="M207 0l-23 23l19 106l30 23h785l121 120v97l-955 626v234l205 205h942l23 -23l-19 -104l-30 -25h-799l-121 -119v-102l967 -635v-221l-205 -205h-940z" />
    <glyph glyph-name="t.ss01" horiz-adv-x="1449" 
d="M172 1270l-31 22l-18 119l22 23h1158l24 -23l-18 -119l-31 -22h-1106zM807 776v-753l-23 -23h-118l-23 23v753h164z" />
    <glyph glyph-name="x.ss01" horiz-adv-x="1568" 
d="M197 1004l-13 26v381l23 23h119l22 -23v-328l1024 -649l12 -28v-383l-24 -23h-117l-22 23v329zM1221 1083v328l22 23h117l24 -23v-381l-12 -26zM348 352v-329l-22 -23h-119l-23 23v383l13 28z" />
    <glyph glyph-name="y.ss01" horiz-adv-x="1470" 
d="M135 1022l-12 29v360l22 23h119l23 -23v-244zM1184 1087v324l22 23h117l25 -23v-360l-13 -29l-518 -627v-372l-22 -25h-119l-23 25v403z" />
    <glyph glyph-name="one.lf" horiz-adv-x="980" 
d="M184 12v51l13 13h252v565h-240l-16 12l-9 52l13 12h323l10 -12v-629h254l13 -13v-51l-13 -12h-587z" />
    <glyph glyph-name="one.osf" horiz-adv-x="980" 
d="M184 12v51l13 13h252v565h-240l-16 12l-9 52l13 12h323l10 -12v-629h254l13 -13v-51l-13 -12h-587z" />
    <glyph glyph-name="one.tf" horiz-adv-x="980" 
d="M184 12v51l13 13h252v565h-240l-16 12l-9 52l13 12h323l10 -12v-629h254l13 -13v-51l-13 -12h-587z" />
    <glyph glyph-name="one.tosf" horiz-adv-x="980" 
d="M184 12v51l13 13h252v565h-240l-16 12l-9 52l13 12h323l10 -12v-629h254l13 -13v-51l-13 -12h-587z" />
    <glyph glyph-name="one.numr" horiz-adv-x="980" 
d="M184 12v51l13 13h252v565h-240l-16 12l-9 52l13 12h323l10 -12v-629h254l13 -13v-51l-13 -12h-587z" />
    <glyph glyph-name="Jdotless" horiz-adv-x="1228" 
 />
    </font>
</defs>
</svg>
